<mxfile host="65bd71144e">
    <diagram id="BnppPIPUg_ORSs3b9G07" name="Page-1">
        <mxGraphModel dx="3579" dy="742" grid="1" gridSize="10" guides="1" tooltips="1" connect="1" arrows="1" fold="1" page="1" pageScale="1" pageWidth="850" pageHeight="1100" math="0" shadow="0">
            <root>
                <mxCell id="0"/>
                <mxCell id="1" parent="0"/>
                <mxCell id="6" value="&lt;font style=&quot;font-size: 30px;&quot;&gt;A&lt;/font&gt;" style="ellipse;whiteSpace=wrap;html=1;aspect=fixed;fontSize=30;" parent="1" vertex="1">
                    <mxGeometry x="280" y="960" width="80" height="80" as="geometry"/>
                </mxCell>
                <mxCell id="7" style="edgeStyle=none;html=1;entryX=0.5;entryY=0;entryDx=0;entryDy=0;fontSize=30;" parent="1" source="8" target="10" edge="1">
                    <mxGeometry relative="1" as="geometry"/>
                </mxCell>
                <mxCell id="8" value="&lt;font style=&quot;font-size: 30px;&quot;&gt;B&lt;/font&gt;" style="ellipse;whiteSpace=wrap;html=1;aspect=fixed;fontSize=30;" parent="1" vertex="1">
                    <mxGeometry x="400" y="960" width="80" height="80" as="geometry"/>
                </mxCell>
                <mxCell id="10" value="&lt;font style=&quot;font-size: 30px;&quot;&gt;C&lt;/font&gt;" style="ellipse;whiteSpace=wrap;html=1;aspect=fixed;fontSize=30;" parent="1" vertex="1">
                    <mxGeometry x="400" y="1080" width="80" height="80" as="geometry"/>
                </mxCell>
                <mxCell id="11" value="&lt;font style=&quot;font-size: 30px;&quot;&gt;D&lt;/font&gt;" style="ellipse;whiteSpace=wrap;html=1;aspect=fixed;fontSize=30;" parent="1" vertex="1">
                    <mxGeometry x="280" y="1080" width="80" height="80" as="geometry"/>
                </mxCell>
                <mxCell id="12" value="" style="endArrow=classic;html=1;fontSize=30;exitX=1;exitY=0.5;exitDx=0;exitDy=0;entryX=0;entryY=0.5;entryDx=0;entryDy=0;" parent="1" source="6" target="8" edge="1">
                    <mxGeometry width="50" height="50" relative="1" as="geometry">
                        <mxPoint x="520" y="1280" as="sourcePoint"/>
                        <mxPoint x="570" y="1230" as="targetPoint"/>
                    </mxGeometry>
                </mxCell>
                <mxCell id="254" style="edgeStyle=none;html=1;fontSize=30;" parent="1" source="13" target="15" edge="1">
                    <mxGeometry relative="1" as="geometry"/>
                </mxCell>
                <mxCell id="13" value="&lt;font style=&quot;font-size: 30px;&quot;&gt;A&lt;/font&gt;" style="ellipse;whiteSpace=wrap;html=1;aspect=fixed;fontSize=30;" parent="1" vertex="1">
                    <mxGeometry x="520" y="960" width="80" height="80" as="geometry"/>
                </mxCell>
                <mxCell id="256" style="edgeStyle=none;html=1;fontSize=30;" parent="1" source="15" target="19" edge="1">
                    <mxGeometry relative="1" as="geometry"/>
                </mxCell>
                <mxCell id="15" value="&lt;font style=&quot;font-size: 30px;&quot;&gt;B&lt;/font&gt;" style="ellipse;whiteSpace=wrap;html=1;aspect=fixed;fontSize=30;" parent="1" vertex="1">
                    <mxGeometry x="640" y="960" width="80" height="80" as="geometry"/>
                </mxCell>
                <mxCell id="17" value="&lt;font style=&quot;font-size: 30px;&quot;&gt;C&lt;/font&gt;" style="ellipse;whiteSpace=wrap;html=1;aspect=fixed;fontSize=30;" parent="1" vertex="1">
                    <mxGeometry x="640" y="1080" width="80" height="80" as="geometry"/>
                </mxCell>
                <mxCell id="19" value="&lt;font style=&quot;font-size: 30px;&quot;&gt;D&lt;/font&gt;" style="ellipse;whiteSpace=wrap;html=1;aspect=fixed;fontSize=30;" parent="1" vertex="1">
                    <mxGeometry x="520" y="1080" width="80" height="80" as="geometry"/>
                </mxCell>
                <mxCell id="20" style="edgeStyle=none;html=1;fontSize=30;" parent="1" source="21" target="25" edge="1">
                    <mxGeometry relative="1" as="geometry">
                        <mxPoint x="600" y="100" as="sourcePoint"/>
                    </mxGeometry>
                </mxCell>
                <mxCell id="21" value="&lt;font style=&quot;font-size: 30px;&quot;&gt;A&lt;/font&gt;" style="ellipse;whiteSpace=wrap;html=1;aspect=fixed;fontSize=30;" parent="1" vertex="1">
                    <mxGeometry x="520" y="120" width="80" height="80" as="geometry"/>
                </mxCell>
                <mxCell id="22" style="edgeStyle=none;html=1;fontSize=30;" parent="1" source="23" target="27" edge="1">
                    <mxGeometry relative="1" as="geometry"/>
                </mxCell>
                <mxCell id="23" value="&lt;font style=&quot;font-size: 30px;&quot;&gt;B&lt;/font&gt;" style="ellipse;whiteSpace=wrap;html=1;aspect=fixed;fontSize=30;" parent="1" vertex="1">
                    <mxGeometry x="640" y="120" width="80" height="80" as="geometry"/>
                </mxCell>
                <mxCell id="24" style="edgeStyle=none;html=1;fontSize=30;" parent="1" source="25" target="21" edge="1">
                    <mxGeometry relative="1" as="geometry">
                        <mxPoint x="640" y="350" as="sourcePoint"/>
                        <mxPoint x="620" y="120" as="targetPoint"/>
                    </mxGeometry>
                </mxCell>
                <mxCell id="25" value="&lt;font style=&quot;font-size: 30px;&quot;&gt;C&lt;/font&gt;" style="ellipse;whiteSpace=wrap;html=1;aspect=fixed;fontSize=30;" parent="1" vertex="1">
                    <mxGeometry x="640" y="240" width="80" height="80" as="geometry"/>
                </mxCell>
                <mxCell id="26" style="edgeStyle=none;html=1;fontSize=30;" parent="1" source="27" target="23" edge="1">
                    <mxGeometry relative="1" as="geometry">
                        <mxPoint x="620" y="110" as="targetPoint"/>
                    </mxGeometry>
                </mxCell>
                <mxCell id="27" value="&lt;font style=&quot;font-size: 30px;&quot;&gt;D&lt;/font&gt;" style="ellipse;whiteSpace=wrap;html=1;aspect=fixed;fontSize=30;" parent="1" vertex="1">
                    <mxGeometry x="520" y="240" width="80" height="80" as="geometry"/>
                </mxCell>
                <mxCell id="28" value="&lt;font style=&quot;font-size: 30px;&quot;&gt;A&lt;/font&gt;" style="ellipse;whiteSpace=wrap;html=1;aspect=fixed;fontSize=30;" parent="1" vertex="1">
                    <mxGeometry x="40" y="960" width="80" height="80" as="geometry"/>
                </mxCell>
                <mxCell id="30" value="&lt;font style=&quot;font-size: 30px;&quot;&gt;B&lt;/font&gt;" style="ellipse;whiteSpace=wrap;html=1;aspect=fixed;fontSize=30;" parent="1" vertex="1">
                    <mxGeometry x="160" y="960" width="80" height="80" as="geometry"/>
                </mxCell>
                <mxCell id="32" value="&lt;font style=&quot;font-size: 30px;&quot;&gt;C&lt;/font&gt;" style="ellipse;whiteSpace=wrap;html=1;aspect=fixed;fontSize=30;" parent="1" vertex="1">
                    <mxGeometry x="160" y="1080" width="80" height="80" as="geometry"/>
                </mxCell>
                <mxCell id="33" value="&lt;font style=&quot;font-size: 30px;&quot;&gt;D&lt;/font&gt;" style="ellipse;whiteSpace=wrap;html=1;aspect=fixed;fontSize=30;" parent="1" vertex="1">
                    <mxGeometry x="40" y="1080" width="80" height="80" as="geometry"/>
                </mxCell>
                <mxCell id="34" value="" style="endArrow=classic;html=1;fontSize=30;exitX=1;exitY=0.5;exitDx=0;exitDy=0;entryX=0;entryY=0.5;entryDx=0;entryDy=0;" parent="1" source="28" target="30" edge="1">
                    <mxGeometry width="50" height="50" relative="1" as="geometry">
                        <mxPoint x="280" y="1280" as="sourcePoint"/>
                        <mxPoint x="330" y="1230" as="targetPoint"/>
                    </mxGeometry>
                </mxCell>
                <mxCell id="35" value="&lt;font style=&quot;font-size: 30px;&quot;&gt;A&lt;/font&gt;" style="ellipse;whiteSpace=wrap;html=1;aspect=fixed;fontSize=30;" parent="1" vertex="1">
                    <mxGeometry x="40" y="120" width="80" height="80" as="geometry"/>
                </mxCell>
                <mxCell id="37" value="&lt;font style=&quot;font-size: 30px;&quot;&gt;B&lt;/font&gt;" style="ellipse;whiteSpace=wrap;html=1;aspect=fixed;fontSize=30;" parent="1" vertex="1">
                    <mxGeometry x="160" y="120" width="80" height="80" as="geometry"/>
                </mxCell>
                <mxCell id="39" value="&lt;font style=&quot;font-size: 30px;&quot;&gt;C&lt;/font&gt;" style="ellipse;whiteSpace=wrap;html=1;aspect=fixed;fontSize=30;" parent="1" vertex="1">
                    <mxGeometry x="160" y="240" width="80" height="80" as="geometry"/>
                </mxCell>
                <mxCell id="41" value="&lt;font style=&quot;font-size: 30px;&quot;&gt;D&lt;/font&gt;" style="ellipse;whiteSpace=wrap;html=1;aspect=fixed;fontSize=30;" parent="1" vertex="1">
                    <mxGeometry x="40" y="240" width="80" height="80" as="geometry"/>
                </mxCell>
                <mxCell id="51" value="&lt;font style=&quot;font-size: 24px;&quot;&gt;Symetry&amp;nbsp;&lt;/font&gt;" style="text;html=1;strokeColor=none;fillColor=none;align=left;verticalAlign=middle;whiteSpace=wrap;rounded=0;" parent="1" vertex="1">
                    <mxGeometry x="40" width="160" height="40" as="geometry"/>
                </mxCell>
                <mxCell id="52" style="edgeStyle=none;html=1;fontSize=30;" parent="1" source="53" target="55" edge="1">
                    <mxGeometry relative="1" as="geometry">
                        <mxPoint x="360" y="100" as="sourcePoint"/>
                    </mxGeometry>
                </mxCell>
                <mxCell id="53" value="&lt;font style=&quot;font-size: 30px;&quot;&gt;A&lt;/font&gt;" style="ellipse;whiteSpace=wrap;html=1;aspect=fixed;fontSize=30;" parent="1" vertex="1">
                    <mxGeometry x="280" y="120" width="80" height="80" as="geometry"/>
                </mxCell>
                <mxCell id="54" style="edgeStyle=none;html=1;fontSize=30;exitX=0;exitY=0.5;exitDx=0;exitDy=0;" parent="1" source="57" target="59" edge="1">
                    <mxGeometry relative="1" as="geometry"/>
                </mxCell>
                <mxCell id="55" value="&lt;font style=&quot;font-size: 30px;&quot;&gt;B&lt;/font&gt;" style="ellipse;whiteSpace=wrap;html=1;aspect=fixed;fontSize=30;" parent="1" vertex="1">
                    <mxGeometry x="400" y="120" width="80" height="80" as="geometry"/>
                </mxCell>
                <mxCell id="56" style="edgeStyle=none;html=1;fontSize=30;" parent="1" source="55" target="53" edge="1">
                    <mxGeometry relative="1" as="geometry">
                        <mxPoint x="400" y="350" as="sourcePoint"/>
                        <mxPoint x="380" y="120" as="targetPoint"/>
                    </mxGeometry>
                </mxCell>
                <mxCell id="57" value="&lt;font style=&quot;font-size: 30px;&quot;&gt;C&lt;/font&gt;" style="ellipse;whiteSpace=wrap;html=1;aspect=fixed;fontSize=30;" parent="1" vertex="1">
                    <mxGeometry x="400" y="240" width="80" height="80" as="geometry"/>
                </mxCell>
                <mxCell id="58" style="edgeStyle=none;html=1;fontSize=30;entryX=0;entryY=0.5;entryDx=0;entryDy=0;" parent="1" source="59" target="57" edge="1">
                    <mxGeometry relative="1" as="geometry">
                        <mxPoint x="380" y="110" as="targetPoint"/>
                    </mxGeometry>
                </mxCell>
                <mxCell id="59" value="&lt;font style=&quot;font-size: 30px;&quot;&gt;D&lt;/font&gt;" style="ellipse;whiteSpace=wrap;html=1;aspect=fixed;fontSize=30;" parent="1" vertex="1">
                    <mxGeometry x="280" y="240" width="80" height="80" as="geometry"/>
                </mxCell>
                <mxCell id="60" style="edgeStyle=none;html=1;fontSize=30;" parent="1" source="61" target="67" edge="1">
                    <mxGeometry relative="1" as="geometry">
                        <mxPoint x="840" y="100" as="sourcePoint"/>
                    </mxGeometry>
                </mxCell>
                <mxCell id="61" value="&lt;font style=&quot;font-size: 30px;&quot;&gt;A&lt;/font&gt;" style="ellipse;whiteSpace=wrap;html=1;aspect=fixed;fontSize=30;" parent="1" vertex="1">
                    <mxGeometry x="760" y="120" width="80" height="80" as="geometry"/>
                </mxCell>
                <mxCell id="62" style="edgeStyle=none;html=1;fontSize=30;" parent="1" source="63" target="65" edge="1">
                    <mxGeometry relative="1" as="geometry"/>
                </mxCell>
                <mxCell id="63" value="&lt;font style=&quot;font-size: 30px;&quot;&gt;B&lt;/font&gt;" style="ellipse;whiteSpace=wrap;html=1;aspect=fixed;fontSize=30;" parent="1" vertex="1">
                    <mxGeometry x="880" y="120" width="80" height="80" as="geometry"/>
                </mxCell>
                <mxCell id="64" style="edgeStyle=none;html=1;fontSize=30;" parent="1" source="65" target="63" edge="1">
                    <mxGeometry relative="1" as="geometry">
                        <mxPoint x="860" y="350" as="sourcePoint"/>
                        <mxPoint x="860" y="120" as="targetPoint"/>
                    </mxGeometry>
                </mxCell>
                <mxCell id="65" value="&lt;font style=&quot;font-size: 30px;&quot;&gt;C&lt;/font&gt;" style="ellipse;whiteSpace=wrap;html=1;aspect=fixed;fontSize=30;" parent="1" vertex="1">
                    <mxGeometry x="880" y="240" width="80" height="80" as="geometry"/>
                </mxCell>
                <mxCell id="66" style="edgeStyle=none;html=1;fontSize=30;" parent="1" source="67" target="61" edge="1">
                    <mxGeometry relative="1" as="geometry">
                        <mxPoint x="860" y="110" as="targetPoint"/>
                    </mxGeometry>
                </mxCell>
                <mxCell id="67" value="&lt;font style=&quot;font-size: 30px;&quot;&gt;D&lt;/font&gt;" style="ellipse;whiteSpace=wrap;html=1;aspect=fixed;fontSize=30;" parent="1" vertex="1">
                    <mxGeometry x="760" y="240" width="80" height="80" as="geometry"/>
                </mxCell>
                <mxCell id="70" value="&lt;font style=&quot;font-size: 24px;&quot;&gt;Identity&lt;/font&gt;" style="text;html=1;strokeColor=none;fillColor=none;align=left;verticalAlign=middle;whiteSpace=wrap;rounded=0;" parent="1" vertex="1">
                    <mxGeometry x="40" y="80" width="200" height="40" as="geometry"/>
                </mxCell>
                <mxCell id="71" value="&lt;font style=&quot;font-size: 24px;&quot;&gt;2.3 loop&amp;nbsp;&lt;/font&gt;" style="text;html=1;strokeColor=none;fillColor=none;align=left;verticalAlign=middle;whiteSpace=wrap;rounded=0;" parent="1" vertex="1">
                    <mxGeometry x="760" y="80" width="200" height="40" as="geometry"/>
                </mxCell>
                <mxCell id="72" value="&lt;font style=&quot;font-size: 24px;&quot;&gt;2.1 loop&amp;nbsp;&lt;/font&gt;" style="text;html=1;strokeColor=none;fillColor=none;align=left;verticalAlign=middle;whiteSpace=wrap;rounded=0;" parent="1" vertex="1">
                    <mxGeometry x="280" y="80" width="200" height="40" as="geometry"/>
                </mxCell>
                <mxCell id="73" value="&lt;font style=&quot;font-size: 24px;&quot;&gt;2.2 loop&amp;nbsp;&lt;/font&gt;" style="text;html=1;strokeColor=none;fillColor=none;align=left;verticalAlign=middle;whiteSpace=wrap;rounded=0;" parent="1" vertex="1">
                    <mxGeometry x="520" y="80" width="200" height="40" as="geometry"/>
                </mxCell>
                <mxCell id="123" style="edgeStyle=none;html=1;fontSize=30;" parent="1" source="75" target="79" edge="1">
                    <mxGeometry relative="1" as="geometry"/>
                </mxCell>
                <mxCell id="75" value="&lt;font style=&quot;font-size: 30px;&quot;&gt;A&lt;/font&gt;" style="ellipse;whiteSpace=wrap;html=1;aspect=fixed;fontSize=30;" parent="1" vertex="1">
                    <mxGeometry x="760" y="400" width="80" height="80" as="geometry"/>
                </mxCell>
                <mxCell id="77" value="&lt;font style=&quot;font-size: 30px;&quot;&gt;B&lt;/font&gt;" style="ellipse;whiteSpace=wrap;html=1;aspect=fixed;fontSize=30;" parent="1" vertex="1">
                    <mxGeometry x="880" y="400" width="80" height="80" as="geometry"/>
                </mxCell>
                <mxCell id="124" style="edgeStyle=none;html=1;fontSize=30;" parent="1" source="79" target="81" edge="1">
                    <mxGeometry relative="1" as="geometry"/>
                </mxCell>
                <mxCell id="79" value="&lt;font style=&quot;font-size: 30px;&quot;&gt;C&lt;/font&gt;" style="ellipse;whiteSpace=wrap;html=1;aspect=fixed;fontSize=30;" parent="1" vertex="1">
                    <mxGeometry x="880" y="520" width="80" height="80" as="geometry"/>
                </mxCell>
                <mxCell id="125" style="edgeStyle=none;html=1;fontSize=30;" parent="1" source="81" target="75" edge="1">
                    <mxGeometry relative="1" as="geometry"/>
                </mxCell>
                <mxCell id="81" value="&lt;font style=&quot;font-size: 30px;&quot;&gt;D&lt;/font&gt;" style="ellipse;whiteSpace=wrap;html=1;aspect=fixed;fontSize=30;" parent="1" vertex="1">
                    <mxGeometry x="760" y="520" width="80" height="80" as="geometry"/>
                </mxCell>
                <mxCell id="119" style="edgeStyle=none;html=1;fontSize=30;" parent="1" source="87" target="89" edge="1">
                    <mxGeometry relative="1" as="geometry"/>
                </mxCell>
                <mxCell id="87" value="&lt;font style=&quot;font-size: 30px;&quot;&gt;A&lt;/font&gt;" style="ellipse;whiteSpace=wrap;html=1;aspect=fixed;fontSize=30;" parent="1" vertex="1">
                    <mxGeometry x="520" y="400" width="80" height="80" as="geometry"/>
                </mxCell>
                <mxCell id="120" style="edgeStyle=none;html=1;fontSize=30;" parent="1" source="89" target="93" edge="1">
                    <mxGeometry relative="1" as="geometry"/>
                </mxCell>
                <mxCell id="89" value="&lt;font style=&quot;font-size: 30px;&quot;&gt;B&lt;/font&gt;" style="ellipse;whiteSpace=wrap;html=1;aspect=fixed;fontSize=30;" parent="1" vertex="1">
                    <mxGeometry x="640" y="400" width="80" height="80" as="geometry"/>
                </mxCell>
                <mxCell id="91" value="&lt;font style=&quot;font-size: 30px;&quot;&gt;C&lt;/font&gt;" style="ellipse;whiteSpace=wrap;html=1;aspect=fixed;fontSize=30;" parent="1" vertex="1">
                    <mxGeometry x="640" y="520" width="80" height="80" as="geometry"/>
                </mxCell>
                <mxCell id="122" style="edgeStyle=none;html=1;fontSize=30;" parent="1" source="93" target="87" edge="1">
                    <mxGeometry relative="1" as="geometry"/>
                </mxCell>
                <mxCell id="93" value="&lt;font style=&quot;font-size: 30px;&quot;&gt;D&lt;/font&gt;" style="ellipse;whiteSpace=wrap;html=1;aspect=fixed;fontSize=30;" parent="1" vertex="1">
                    <mxGeometry x="520" y="520" width="80" height="80" as="geometry"/>
                </mxCell>
                <mxCell id="116" style="edgeStyle=none;html=1;fontSize=30;" parent="1" source="95" target="97" edge="1">
                    <mxGeometry relative="1" as="geometry"/>
                </mxCell>
                <mxCell id="95" value="&lt;font style=&quot;font-size: 30px;&quot;&gt;A&lt;/font&gt;" style="ellipse;whiteSpace=wrap;html=1;aspect=fixed;fontSize=30;" parent="1" vertex="1">
                    <mxGeometry x="280" y="400" width="80" height="80" as="geometry"/>
                </mxCell>
                <mxCell id="117" style="edgeStyle=none;html=1;fontSize=30;" parent="1" source="97" target="99" edge="1">
                    <mxGeometry relative="1" as="geometry"/>
                </mxCell>
                <mxCell id="97" value="&lt;font style=&quot;font-size: 30px;&quot;&gt;B&lt;/font&gt;" style="ellipse;whiteSpace=wrap;html=1;aspect=fixed;fontSize=30;" parent="1" vertex="1">
                    <mxGeometry x="400" y="400" width="80" height="80" as="geometry"/>
                </mxCell>
                <mxCell id="118" style="edgeStyle=none;html=1;fontSize=30;" parent="1" source="99" target="95" edge="1">
                    <mxGeometry relative="1" as="geometry"/>
                </mxCell>
                <mxCell id="99" value="&lt;font style=&quot;font-size: 30px;&quot;&gt;C&lt;/font&gt;" style="ellipse;whiteSpace=wrap;html=1;aspect=fixed;fontSize=30;" parent="1" vertex="1">
                    <mxGeometry x="400" y="520" width="80" height="80" as="geometry"/>
                </mxCell>
                <mxCell id="101" value="&lt;font style=&quot;font-size: 30px;&quot;&gt;D&lt;/font&gt;" style="ellipse;whiteSpace=wrap;html=1;aspect=fixed;fontSize=30;" parent="1" vertex="1">
                    <mxGeometry x="280" y="520" width="80" height="80" as="geometry"/>
                </mxCell>
                <mxCell id="103" value="&lt;font style=&quot;font-size: 24px;&quot;&gt;3.1 loop&amp;nbsp;&lt;/font&gt;" style="text;html=1;strokeColor=none;fillColor=none;align=left;verticalAlign=middle;whiteSpace=wrap;rounded=0;" parent="1" vertex="1">
                    <mxGeometry x="280" y="360" width="200" height="40" as="geometry"/>
                </mxCell>
                <mxCell id="104" value="&lt;font style=&quot;font-size: 24px;&quot;&gt;3.2 loop&amp;nbsp;&lt;/font&gt;" style="text;html=1;strokeColor=none;fillColor=none;align=left;verticalAlign=middle;whiteSpace=wrap;rounded=0;" parent="1" vertex="1">
                    <mxGeometry x="520" y="360" width="200" height="40" as="geometry"/>
                </mxCell>
                <mxCell id="105" value="&lt;font style=&quot;font-size: 24px;&quot;&gt;3.3 loop&amp;nbsp;&lt;/font&gt;" style="text;html=1;strokeColor=none;fillColor=none;align=left;verticalAlign=middle;whiteSpace=wrap;rounded=0;" parent="1" vertex="1">
                    <mxGeometry x="760" y="360" width="200" height="40" as="geometry"/>
                </mxCell>
                <mxCell id="126" value="&lt;span style=&quot;font-size: 24px;&quot;&gt;repeat for B, C, D&lt;/span&gt;" style="text;html=1;strokeColor=none;fillColor=none;align=left;verticalAlign=middle;whiteSpace=wrap;rounded=0;" parent="1" vertex="1">
                    <mxGeometry x="1000" y="360" width="200" height="40" as="geometry"/>
                </mxCell>
                <mxCell id="127" value="&lt;span style=&quot;font-size: 24px;&quot;&gt;repeat for odd man out behavior&lt;/span&gt;" style="text;html=1;strokeColor=none;fillColor=none;align=left;verticalAlign=middle;whiteSpace=wrap;rounded=0;" parent="1" vertex="1">
                    <mxGeometry x="1000" y="410" width="200" height="70" as="geometry"/>
                </mxCell>
                <mxCell id="128" value="&lt;font style=&quot;font-size: 24px;&quot;&gt;1 tails&lt;/font&gt;" style="text;html=1;strokeColor=none;fillColor=none;align=left;verticalAlign=middle;whiteSpace=wrap;rounded=0;" parent="1" vertex="1">
                    <mxGeometry x="40" y="920" width="200" height="40" as="geometry"/>
                </mxCell>
                <mxCell id="129" value="&lt;font style=&quot;font-size: 30px;&quot;&gt;A&lt;/font&gt;" style="ellipse;whiteSpace=wrap;html=1;aspect=fixed;fontSize=30;" parent="1" vertex="1">
                    <mxGeometry x="40" y="1240" width="80" height="80" as="geometry"/>
                </mxCell>
                <mxCell id="130" style="edgeStyle=none;html=1;fontSize=30;" parent="1" source="134" target="131" edge="1">
                    <mxGeometry relative="1" as="geometry"/>
                </mxCell>
                <mxCell id="131" value="&lt;font style=&quot;font-size: 30px;&quot;&gt;B&lt;/font&gt;" style="ellipse;whiteSpace=wrap;html=1;aspect=fixed;fontSize=30;" parent="1" vertex="1">
                    <mxGeometry x="160" y="1240" width="80" height="80" as="geometry"/>
                </mxCell>
                <mxCell id="133" value="&lt;font style=&quot;font-size: 30px;&quot;&gt;C&lt;/font&gt;" style="ellipse;whiteSpace=wrap;html=1;aspect=fixed;fontSize=30;" parent="1" vertex="1">
                    <mxGeometry x="160" y="1360" width="80" height="80" as="geometry"/>
                </mxCell>
                <mxCell id="134" value="&lt;font style=&quot;font-size: 30px;&quot;&gt;D&lt;/font&gt;" style="ellipse;whiteSpace=wrap;html=1;aspect=fixed;fontSize=30;" parent="1" vertex="1">
                    <mxGeometry x="40" y="1360" width="80" height="80" as="geometry"/>
                </mxCell>
                <mxCell id="135" value="" style="endArrow=classic;html=1;fontSize=30;exitX=1;exitY=0.5;exitDx=0;exitDy=0;entryX=0;entryY=0.5;entryDx=0;entryDy=0;" parent="1" source="129" target="131" edge="1">
                    <mxGeometry width="50" height="50" relative="1" as="geometry">
                        <mxPoint x="280" y="1560" as="sourcePoint"/>
                        <mxPoint x="330" y="1510" as="targetPoint"/>
                    </mxGeometry>
                </mxCell>
                <mxCell id="136" value="&lt;font style=&quot;font-size: 24px;&quot;&gt;2 tails&lt;/font&gt;" style="text;html=1;strokeColor=none;fillColor=none;align=left;verticalAlign=middle;whiteSpace=wrap;rounded=0;" parent="1" vertex="1">
                    <mxGeometry x="40" y="1200" width="200" height="40" as="geometry"/>
                </mxCell>
                <mxCell id="137" value="&lt;font style=&quot;font-size: 30px;&quot;&gt;A&lt;/font&gt;" style="ellipse;whiteSpace=wrap;html=1;aspect=fixed;fontSize=30;" parent="1" vertex="1">
                    <mxGeometry x="40" y="1520" width="80" height="80" as="geometry"/>
                </mxCell>
                <mxCell id="138" style="edgeStyle=none;html=1;fontSize=30;" parent="1" source="142" target="141" edge="1">
                    <mxGeometry relative="1" as="geometry"/>
                </mxCell>
                <mxCell id="139" value="&lt;font style=&quot;font-size: 30px;&quot;&gt;B&lt;/font&gt;" style="ellipse;whiteSpace=wrap;html=1;aspect=fixed;fontSize=30;" parent="1" vertex="1">
                    <mxGeometry x="160" y="1520" width="80" height="80" as="geometry"/>
                </mxCell>
                <mxCell id="140" style="edgeStyle=none;html=1;fontSize=30;entryX=0;entryY=0;entryDx=0;entryDy=0;" parent="1" source="137" target="141" edge="1">
                    <mxGeometry relative="1" as="geometry"/>
                </mxCell>
                <mxCell id="141" value="&lt;font style=&quot;font-size: 30px;&quot;&gt;C&lt;/font&gt;" style="ellipse;whiteSpace=wrap;html=1;aspect=fixed;fontSize=30;" parent="1" vertex="1">
                    <mxGeometry x="160" y="1640" width="80" height="80" as="geometry"/>
                </mxCell>
                <mxCell id="142" value="&lt;font style=&quot;font-size: 30px;&quot;&gt;D&lt;/font&gt;" style="ellipse;whiteSpace=wrap;html=1;aspect=fixed;fontSize=30;" parent="1" vertex="1">
                    <mxGeometry x="40" y="1640" width="80" height="80" as="geometry"/>
                </mxCell>
                <mxCell id="143" value="" style="endArrow=classic;html=1;fontSize=30;" parent="1" source="139" target="141" edge="1">
                    <mxGeometry width="50" height="50" relative="1" as="geometry">
                        <mxPoint x="280" y="1840" as="sourcePoint"/>
                        <mxPoint x="330" y="1790" as="targetPoint"/>
                    </mxGeometry>
                </mxCell>
                <mxCell id="144" value="&lt;font style=&quot;font-size: 24px;&quot;&gt;3 tails&lt;/font&gt;" style="text;html=1;strokeColor=none;fillColor=none;align=left;verticalAlign=middle;whiteSpace=wrap;rounded=0;" parent="1" vertex="1">
                    <mxGeometry x="40" y="1480" width="200" height="40" as="geometry"/>
                </mxCell>
                <mxCell id="145" value="&lt;span style=&quot;font-size: 24px;&quot;&gt;...&lt;/span&gt;" style="text;html=1;strokeColor=none;fillColor=none;align=left;verticalAlign=middle;whiteSpace=wrap;rounded=0;rotation=30;" parent="1" vertex="1">
                    <mxGeometry x="740" y="940" width="200" height="40" as="geometry"/>
                </mxCell>
                <mxCell id="146" value="&lt;font style=&quot;font-size: 30px;&quot;&gt;A&lt;/font&gt;" style="ellipse;whiteSpace=wrap;html=1;aspect=fixed;fontSize=30;" parent="1" vertex="1">
                    <mxGeometry x="280" y="680" width="80" height="80" as="geometry"/>
                </mxCell>
                <mxCell id="147" style="edgeStyle=none;html=1;entryX=0.5;entryY=0;entryDx=0;entryDy=0;fontSize=30;" parent="1" source="148" target="150" edge="1">
                    <mxGeometry relative="1" as="geometry"/>
                </mxCell>
                <mxCell id="148" value="&lt;font style=&quot;font-size: 30px;&quot;&gt;B&lt;/font&gt;" style="ellipse;whiteSpace=wrap;html=1;aspect=fixed;fontSize=30;" parent="1" vertex="1">
                    <mxGeometry x="400" y="680" width="80" height="80" as="geometry"/>
                </mxCell>
                <mxCell id="149" style="edgeStyle=none;html=1;fontSize=30;" parent="1" source="150" target="151" edge="1">
                    <mxGeometry relative="1" as="geometry"/>
                </mxCell>
                <mxCell id="150" value="&lt;font style=&quot;font-size: 30px;&quot;&gt;C&lt;/font&gt;" style="ellipse;whiteSpace=wrap;html=1;aspect=fixed;fontSize=30;" parent="1" vertex="1">
                    <mxGeometry x="400" y="800" width="80" height="80" as="geometry"/>
                </mxCell>
                <mxCell id="161" style="edgeStyle=none;html=1;fontSize=30;" parent="1" source="151" target="146" edge="1">
                    <mxGeometry relative="1" as="geometry"/>
                </mxCell>
                <mxCell id="151" value="&lt;font style=&quot;font-size: 30px;&quot;&gt;D&lt;/font&gt;" style="ellipse;whiteSpace=wrap;html=1;aspect=fixed;fontSize=30;" parent="1" vertex="1">
                    <mxGeometry x="280" y="800" width="80" height="80" as="geometry"/>
                </mxCell>
                <mxCell id="152" value="" style="endArrow=classic;html=1;fontSize=30;exitX=1;exitY=0.5;exitDx=0;exitDy=0;entryX=0;entryY=0.5;entryDx=0;entryDy=0;" parent="1" source="146" target="148" edge="1">
                    <mxGeometry width="50" height="50" relative="1" as="geometry">
                        <mxPoint x="520" y="1000" as="sourcePoint"/>
                        <mxPoint x="570" y="950" as="targetPoint"/>
                    </mxGeometry>
                </mxCell>
                <mxCell id="163" style="edgeStyle=none;html=1;fontSize=30;" parent="1" source="153" target="159" edge="1">
                    <mxGeometry relative="1" as="geometry"/>
                </mxCell>
                <mxCell id="153" value="&lt;font style=&quot;font-size: 30px;&quot;&gt;A&lt;/font&gt;" style="ellipse;whiteSpace=wrap;html=1;aspect=fixed;fontSize=30;" parent="1" vertex="1">
                    <mxGeometry x="520" y="680" width="80" height="80" as="geometry"/>
                </mxCell>
                <mxCell id="154" style="edgeStyle=none;html=1;fontSize=30;" parent="1" source="155" target="153" edge="1">
                    <mxGeometry relative="1" as="geometry"/>
                </mxCell>
                <mxCell id="155" value="&lt;font style=&quot;font-size: 30px;&quot;&gt;B&lt;/font&gt;" style="ellipse;whiteSpace=wrap;html=1;aspect=fixed;fontSize=30;" parent="1" vertex="1">
                    <mxGeometry x="640" y="680" width="80" height="80" as="geometry"/>
                </mxCell>
                <mxCell id="156" style="edgeStyle=none;html=1;fontSize=30;" parent="1" source="157" target="155" edge="1">
                    <mxGeometry relative="1" as="geometry"/>
                </mxCell>
                <mxCell id="157" value="&lt;font style=&quot;font-size: 30px;&quot;&gt;C&lt;/font&gt;" style="ellipse;whiteSpace=wrap;html=1;aspect=fixed;fontSize=30;" parent="1" vertex="1">
                    <mxGeometry x="640" y="800" width="80" height="80" as="geometry"/>
                </mxCell>
                <mxCell id="158" style="edgeStyle=none;html=1;fontSize=30;" parent="1" source="159" target="157" edge="1">
                    <mxGeometry relative="1" as="geometry"/>
                </mxCell>
                <mxCell id="159" value="&lt;font style=&quot;font-size: 30px;&quot;&gt;D&lt;/font&gt;" style="ellipse;whiteSpace=wrap;html=1;aspect=fixed;fontSize=30;" parent="1" vertex="1">
                    <mxGeometry x="520" y="800" width="80" height="80" as="geometry"/>
                </mxCell>
                <mxCell id="160" value="&lt;span style=&quot;font-size: 24px;&quot;&gt;4.1 loop&lt;/span&gt;" style="text;html=1;strokeColor=none;fillColor=none;align=left;verticalAlign=middle;whiteSpace=wrap;rounded=0;" parent="1" vertex="1">
                    <mxGeometry x="280" y="640" width="200" height="40" as="geometry"/>
                </mxCell>
                <mxCell id="162" value="&lt;span style=&quot;font-size: 24px;&quot;&gt;4.2 loop&lt;/span&gt;" style="text;html=1;strokeColor=none;fillColor=none;align=left;verticalAlign=middle;whiteSpace=wrap;rounded=0;" parent="1" vertex="1">
                    <mxGeometry x="520" y="640" width="200" height="40" as="geometry"/>
                </mxCell>
                <mxCell id="173" style="edgeStyle=none;html=1;fontSize=30;" parent="1" source="165" target="169" edge="1">
                    <mxGeometry relative="1" as="geometry"/>
                </mxCell>
                <mxCell id="165" value="&lt;font style=&quot;font-size: 30px;&quot;&gt;A&lt;/font&gt;" style="ellipse;whiteSpace=wrap;html=1;aspect=fixed;fontSize=30;" parent="1" vertex="1">
                    <mxGeometry x="760" y="680" width="80" height="80" as="geometry"/>
                </mxCell>
                <mxCell id="176" style="edgeStyle=none;html=1;fontSize=30;" parent="1" source="167" target="165" edge="1">
                    <mxGeometry relative="1" as="geometry"/>
                </mxCell>
                <mxCell id="167" value="&lt;font style=&quot;font-size: 30px;&quot;&gt;B&lt;/font&gt;" style="ellipse;whiteSpace=wrap;html=1;aspect=fixed;fontSize=30;" parent="1" vertex="1">
                    <mxGeometry x="880" y="680" width="80" height="80" as="geometry"/>
                </mxCell>
                <mxCell id="174" style="edgeStyle=none;html=1;fontSize=30;" parent="1" source="169" target="171" edge="1">
                    <mxGeometry relative="1" as="geometry"/>
                </mxCell>
                <mxCell id="169" value="&lt;font style=&quot;font-size: 30px;&quot;&gt;C&lt;/font&gt;" style="ellipse;whiteSpace=wrap;html=1;aspect=fixed;fontSize=30;" parent="1" vertex="1">
                    <mxGeometry x="880" y="800" width="80" height="80" as="geometry"/>
                </mxCell>
                <mxCell id="175" style="edgeStyle=none;html=1;fontSize=30;" parent="1" source="171" target="167" edge="1">
                    <mxGeometry relative="1" as="geometry"/>
                </mxCell>
                <mxCell id="171" value="&lt;font style=&quot;font-size: 30px;&quot;&gt;D&lt;/font&gt;" style="ellipse;whiteSpace=wrap;html=1;aspect=fixed;fontSize=30;" parent="1" vertex="1">
                    <mxGeometry x="760" y="800" width="80" height="80" as="geometry"/>
                </mxCell>
                <mxCell id="172" value="&lt;span style=&quot;font-size: 24px;&quot;&gt;4.3 loop&lt;/span&gt;" style="text;html=1;strokeColor=none;fillColor=none;align=left;verticalAlign=middle;whiteSpace=wrap;rounded=0;" parent="1" vertex="1">
                    <mxGeometry x="760" y="640" width="200" height="40" as="geometry"/>
                </mxCell>
                <mxCell id="187" style="edgeStyle=none;html=1;fontSize=30;" parent="1" source="178" target="182" edge="1">
                    <mxGeometry relative="1" as="geometry"/>
                </mxCell>
                <mxCell id="178" value="&lt;font style=&quot;font-size: 30px;&quot;&gt;A&lt;/font&gt;" style="ellipse;whiteSpace=wrap;html=1;aspect=fixed;fontSize=30;" parent="1" vertex="1">
                    <mxGeometry x="1000" y="680" width="80" height="80" as="geometry"/>
                </mxCell>
                <mxCell id="189" style="edgeStyle=none;html=1;fontSize=30;" parent="1" source="180" target="184" edge="1">
                    <mxGeometry relative="1" as="geometry"/>
                </mxCell>
                <mxCell id="180" value="&lt;font style=&quot;font-size: 30px;&quot;&gt;B&lt;/font&gt;" style="ellipse;whiteSpace=wrap;html=1;aspect=fixed;fontSize=30;" parent="1" vertex="1">
                    <mxGeometry x="1120" y="680" width="80" height="80" as="geometry"/>
                </mxCell>
                <mxCell id="188" style="edgeStyle=none;html=1;fontSize=30;" parent="1" source="182" target="180" edge="1">
                    <mxGeometry relative="1" as="geometry"/>
                </mxCell>
                <mxCell id="182" value="&lt;font style=&quot;font-size: 30px;&quot;&gt;C&lt;/font&gt;" style="ellipse;whiteSpace=wrap;html=1;aspect=fixed;fontSize=30;" parent="1" vertex="1">
                    <mxGeometry x="1120" y="800" width="80" height="80" as="geometry"/>
                </mxCell>
                <mxCell id="190" style="edgeStyle=none;html=1;fontSize=30;" parent="1" source="184" target="178" edge="1">
                    <mxGeometry relative="1" as="geometry"/>
                </mxCell>
                <mxCell id="184" value="&lt;font style=&quot;font-size: 30px;&quot;&gt;D&lt;/font&gt;" style="ellipse;whiteSpace=wrap;html=1;aspect=fixed;fontSize=30;" parent="1" vertex="1">
                    <mxGeometry x="1000" y="800" width="80" height="80" as="geometry"/>
                </mxCell>
                <mxCell id="185" value="&lt;span style=&quot;font-size: 24px;&quot;&gt;4.3.1 loop&lt;/span&gt;" style="text;html=1;strokeColor=none;fillColor=none;align=left;verticalAlign=middle;whiteSpace=wrap;rounded=0;" parent="1" vertex="1">
                    <mxGeometry x="1000" y="640" width="200" height="40" as="geometry"/>
                </mxCell>
                <mxCell id="202" style="edgeStyle=none;html=1;fontSize=30;" parent="1" source="192" target="194" edge="1">
                    <mxGeometry relative="1" as="geometry"/>
                </mxCell>
                <mxCell id="192" value="&lt;font style=&quot;font-size: 30px;&quot;&gt;A&lt;/font&gt;" style="ellipse;whiteSpace=wrap;html=1;aspect=fixed;fontSize=30;" parent="1" vertex="1">
                    <mxGeometry x="1240" y="680" width="80" height="80" as="geometry"/>
                </mxCell>
                <mxCell id="203" style="edgeStyle=none;html=1;fontSize=30;" parent="1" source="194" target="198" edge="1">
                    <mxGeometry relative="1" as="geometry"/>
                </mxCell>
                <mxCell id="194" value="&lt;font style=&quot;font-size: 30px;&quot;&gt;B&lt;/font&gt;" style="ellipse;whiteSpace=wrap;html=1;aspect=fixed;fontSize=30;" parent="1" vertex="1">
                    <mxGeometry x="1360" y="680" width="80" height="80" as="geometry"/>
                </mxCell>
                <mxCell id="201" style="edgeStyle=none;html=1;fontSize=30;" parent="1" source="196" target="192" edge="1">
                    <mxGeometry relative="1" as="geometry"/>
                </mxCell>
                <mxCell id="196" value="&lt;font style=&quot;font-size: 30px;&quot;&gt;C&lt;/font&gt;" style="ellipse;whiteSpace=wrap;html=1;aspect=fixed;fontSize=30;" parent="1" vertex="1">
                    <mxGeometry x="1360" y="800" width="80" height="80" as="geometry"/>
                </mxCell>
                <mxCell id="204" style="edgeStyle=none;html=1;fontSize=30;" parent="1" source="198" target="196" edge="1">
                    <mxGeometry relative="1" as="geometry"/>
                </mxCell>
                <mxCell id="198" value="&lt;font style=&quot;font-size: 30px;&quot;&gt;D&lt;/font&gt;" style="ellipse;whiteSpace=wrap;html=1;aspect=fixed;fontSize=30;" parent="1" vertex="1">
                    <mxGeometry x="1240" y="800" width="80" height="80" as="geometry"/>
                </mxCell>
                <mxCell id="199" value="&lt;span style=&quot;font-size: 24px;&quot;&gt;4.4 loop&lt;/span&gt;" style="text;html=1;strokeColor=none;fillColor=none;align=left;verticalAlign=middle;whiteSpace=wrap;rounded=0;" parent="1" vertex="1">
                    <mxGeometry x="1240" y="640" width="200" height="40" as="geometry"/>
                </mxCell>
                <mxCell id="215" style="edgeStyle=none;html=1;fontSize=30;" parent="1" source="206" target="212" edge="1">
                    <mxGeometry relative="1" as="geometry"/>
                </mxCell>
                <mxCell id="206" value="&lt;font style=&quot;font-size: 30px;&quot;&gt;A&lt;/font&gt;" style="ellipse;whiteSpace=wrap;html=1;aspect=fixed;fontSize=30;" parent="1" vertex="1">
                    <mxGeometry x="1480" y="680" width="80" height="80" as="geometry"/>
                </mxCell>
                <mxCell id="217" style="edgeStyle=none;html=1;fontSize=30;" parent="1" source="208" target="210" edge="1">
                    <mxGeometry relative="1" as="geometry"/>
                </mxCell>
                <mxCell id="208" value="&lt;font style=&quot;font-size: 30px;&quot;&gt;B&lt;/font&gt;" style="ellipse;whiteSpace=wrap;html=1;aspect=fixed;fontSize=30;" parent="1" vertex="1">
                    <mxGeometry x="1600" y="680" width="80" height="80" as="geometry"/>
                </mxCell>
                <mxCell id="214" style="edgeStyle=none;html=1;fontSize=30;" parent="1" source="210" target="206" edge="1">
                    <mxGeometry relative="1" as="geometry"/>
                </mxCell>
                <mxCell id="210" value="&lt;font style=&quot;font-size: 30px;&quot;&gt;C&lt;/font&gt;" style="ellipse;whiteSpace=wrap;html=1;aspect=fixed;fontSize=30;" parent="1" vertex="1">
                    <mxGeometry x="1600" y="800" width="80" height="80" as="geometry"/>
                </mxCell>
                <mxCell id="216" style="edgeStyle=none;html=1;fontSize=30;" parent="1" source="212" target="208" edge="1">
                    <mxGeometry relative="1" as="geometry"/>
                </mxCell>
                <mxCell id="212" value="&lt;font style=&quot;font-size: 30px;&quot;&gt;D&lt;/font&gt;" style="ellipse;whiteSpace=wrap;html=1;aspect=fixed;fontSize=30;" parent="1" vertex="1">
                    <mxGeometry x="1480" y="800" width="80" height="80" as="geometry"/>
                </mxCell>
                <mxCell id="213" value="&lt;span style=&quot;font-size: 24px;&quot;&gt;4.4.1 loop&lt;/span&gt;" style="text;html=1;strokeColor=none;fillColor=none;align=left;verticalAlign=middle;whiteSpace=wrap;rounded=0;" parent="1" vertex="1">
                    <mxGeometry x="1480" y="640" width="200" height="40" as="geometry"/>
                </mxCell>
                <mxCell id="239" value="&lt;font style=&quot;font-size: 30px;&quot;&gt;A&lt;/font&gt;" style="ellipse;whiteSpace=wrap;html=1;aspect=fixed;fontSize=30;" parent="1" vertex="1">
                    <mxGeometry x="1000" y="960" width="80" height="80" as="geometry"/>
                </mxCell>
                <mxCell id="240" style="edgeStyle=none;html=1;entryX=0.5;entryY=0;entryDx=0;entryDy=0;fontSize=30;" parent="1" source="241" target="243" edge="1">
                    <mxGeometry relative="1" as="geometry"/>
                </mxCell>
                <mxCell id="241" value="&lt;font style=&quot;font-size: 30px;&quot;&gt;B&lt;/font&gt;" style="ellipse;whiteSpace=wrap;html=1;aspect=fixed;fontSize=30;" parent="1" vertex="1">
                    <mxGeometry x="1120" y="960" width="80" height="80" as="geometry"/>
                </mxCell>
                <mxCell id="242" style="edgeStyle=none;html=1;fontSize=30;" parent="1" source="243" target="244" edge="1">
                    <mxGeometry relative="1" as="geometry"/>
                </mxCell>
                <mxCell id="243" value="&lt;font style=&quot;font-size: 30px;&quot;&gt;C&lt;/font&gt;" style="ellipse;whiteSpace=wrap;html=1;aspect=fixed;fontSize=30;" parent="1" vertex="1">
                    <mxGeometry x="1120" y="1080" width="80" height="80" as="geometry"/>
                </mxCell>
                <mxCell id="244" value="&lt;font style=&quot;font-size: 30px;&quot;&gt;D&lt;/font&gt;" style="ellipse;whiteSpace=wrap;html=1;aspect=fixed;fontSize=30;" parent="1" vertex="1">
                    <mxGeometry x="1000" y="1080" width="80" height="80" as="geometry"/>
                </mxCell>
                <mxCell id="245" value="" style="endArrow=classic;html=1;fontSize=30;exitX=1;exitY=0.5;exitDx=0;exitDy=0;entryX=0;entryY=0.5;entryDx=0;entryDy=0;" parent="1" source="239" target="241" edge="1">
                    <mxGeometry width="50" height="50" relative="1" as="geometry">
                        <mxPoint x="1240" y="1280" as="sourcePoint"/>
                        <mxPoint x="1290" y="1230" as="targetPoint"/>
                    </mxGeometry>
                </mxCell>
                <mxCell id="246" value="&lt;font style=&quot;font-size: 30px;&quot;&gt;A&lt;/font&gt;" style="ellipse;whiteSpace=wrap;html=1;aspect=fixed;fontSize=30;" parent="1" vertex="1">
                    <mxGeometry x="1240" y="960" width="80" height="80" as="geometry"/>
                </mxCell>
                <mxCell id="247" style="edgeStyle=none;html=1;fontSize=30;" parent="1" source="248" target="246" edge="1">
                    <mxGeometry relative="1" as="geometry"/>
                </mxCell>
                <mxCell id="248" value="&lt;font style=&quot;font-size: 30px;&quot;&gt;B&lt;/font&gt;" style="ellipse;whiteSpace=wrap;html=1;aspect=fixed;fontSize=30;" parent="1" vertex="1">
                    <mxGeometry x="1360" y="960" width="80" height="80" as="geometry"/>
                </mxCell>
                <mxCell id="249" style="edgeStyle=none;html=1;fontSize=30;" parent="1" source="250" target="248" edge="1">
                    <mxGeometry relative="1" as="geometry"/>
                </mxCell>
                <mxCell id="250" value="&lt;font style=&quot;font-size: 30px;&quot;&gt;C&lt;/font&gt;" style="ellipse;whiteSpace=wrap;html=1;aspect=fixed;fontSize=30;" parent="1" vertex="1">
                    <mxGeometry x="1360" y="1080" width="80" height="80" as="geometry"/>
                </mxCell>
                <mxCell id="251" style="edgeStyle=none;html=1;fontSize=30;" parent="1" source="252" target="250" edge="1">
                    <mxGeometry relative="1" as="geometry"/>
                </mxCell>
                <mxCell id="252" value="&lt;font style=&quot;font-size: 30px;&quot;&gt;D&lt;/font&gt;" style="ellipse;whiteSpace=wrap;html=1;aspect=fixed;fontSize=30;" parent="1" vertex="1">
                    <mxGeometry x="1240" y="1080" width="80" height="80" as="geometry"/>
                </mxCell>
                <mxCell id="253" value="&lt;span style=&quot;font-size: 24px;&quot;&gt;3 chains&lt;/span&gt;" style="text;html=1;strokeColor=none;fillColor=none;align=left;verticalAlign=middle;whiteSpace=wrap;rounded=0;" parent="1" vertex="1">
                    <mxGeometry x="1000" y="920" width="200" height="40" as="geometry"/>
                </mxCell>
                <mxCell id="257" value="&lt;span style=&quot;font-size: 24px;&quot;&gt;2 chains&lt;/span&gt;" style="text;html=1;strokeColor=none;fillColor=none;align=left;verticalAlign=middle;whiteSpace=wrap;rounded=0;" parent="1" vertex="1">
                    <mxGeometry x="280" y="920" width="200" height="40" as="geometry"/>
                </mxCell>
                <mxCell id="258" value="&lt;span style=&quot;font-size: 24px;&quot;&gt;2.1 chains&lt;/span&gt;" style="text;html=1;strokeColor=none;fillColor=none;align=left;verticalAlign=middle;whiteSpace=wrap;rounded=0;" parent="1" vertex="1">
                    <mxGeometry x="520" y="920" width="200" height="40" as="geometry"/>
                </mxCell>
                <mxCell id="261" value="" style="whiteSpace=wrap;html=1;aspect=fixed;fontSize=30;" parent="1" vertex="1">
                    <mxGeometry x="280" y="1200" width="490" height="490" as="geometry"/>
                </mxCell>
                <mxCell id="264" value="4-state space&lt;br&gt;&lt;br&gt;has 256 function spaces" style="text;html=1;strokeColor=none;fillColor=none;align=center;verticalAlign=middle;whiteSpace=wrap;rounded=0;fontSize=30;" parent="1" vertex="1">
                    <mxGeometry x="290" y="1210" width="470" height="120" as="geometry"/>
                </mxCell>
                <mxCell id="265" value="3-state space&lt;br&gt;&lt;br&gt;has&amp;nbsp; function spaces:&lt;br&gt;A, B, C&lt;br&gt;AB, C&lt;br&gt;AC, B,&lt;br&gt;ABC&lt;br&gt;ACB&lt;br&gt;" style="text;html=1;strokeColor=none;fillColor=none;align=center;verticalAlign=middle;whiteSpace=wrap;rounded=0;fontSize=30;" parent="1" vertex="1">
                    <mxGeometry x="290" y="1340" width="470" height="340" as="geometry"/>
                </mxCell>
                <mxCell id="266" value="00 -&amp;gt; 0" style="text;html=1;strokeColor=none;fillColor=none;align=center;verticalAlign=middle;whiteSpace=wrap;rounded=0;fontSize=30;" parent="1" vertex="1">
                    <mxGeometry x="1360" y="40" width="240" height="40" as="geometry"/>
                </mxCell>
                <mxCell id="276" style="edgeStyle=none;html=1;fontSize=30;" parent="1" source="268" target="270" edge="1">
                    <mxGeometry relative="1" as="geometry"/>
                </mxCell>
                <mxCell id="268" value="&lt;font style=&quot;font-size: 30px;&quot;&gt;00&lt;/font&gt;" style="ellipse;whiteSpace=wrap;html=1;aspect=fixed;fontSize=30;" parent="1" vertex="1">
                    <mxGeometry x="1360" y="170" width="80" height="80" as="geometry"/>
                </mxCell>
                <mxCell id="270" value="&lt;font style=&quot;font-size: 30px;&quot;&gt;0&lt;/font&gt;" style="ellipse;whiteSpace=wrap;html=1;aspect=fixed;fontSize=30;" parent="1" vertex="1">
                    <mxGeometry x="1500" y="80" width="80" height="80" as="geometry"/>
                </mxCell>
                <mxCell id="272" value="&lt;font style=&quot;font-size: 30px;&quot;&gt;1&lt;/font&gt;" style="ellipse;whiteSpace=wrap;html=1;aspect=fixed;fontSize=30;" parent="1" vertex="1">
                    <mxGeometry x="1500" y="270" width="80" height="80" as="geometry"/>
                </mxCell>
                <mxCell id="277" style="edgeStyle=none;html=1;fontSize=30;" parent="1" source="274" target="272" edge="1">
                    <mxGeometry relative="1" as="geometry"/>
                </mxCell>
                <mxCell id="274" value="&lt;font style=&quot;font-size: 30px;&quot;&gt;01&lt;/font&gt;" style="ellipse;whiteSpace=wrap;html=1;aspect=fixed;fontSize=30;" parent="1" vertex="1">
                    <mxGeometry x="1360" y="350" width="80" height="80" as="geometry"/>
                </mxCell>
                <mxCell id="279" style="edgeStyle=none;html=1;fontSize=30;" parent="1" source="278" target="272" edge="1">
                    <mxGeometry relative="1" as="geometry"/>
                </mxCell>
                <mxCell id="278" value="&lt;font style=&quot;font-size: 30px;&quot;&gt;11&lt;/font&gt;" style="ellipse;whiteSpace=wrap;html=1;aspect=fixed;fontSize=30;" parent="1" vertex="1">
                    <mxGeometry x="1360" y="260" width="80" height="80" as="geometry"/>
                </mxCell>
                <mxCell id="282" style="edgeStyle=none;html=1;fontSize=30;" parent="1" source="280" target="270" edge="1">
                    <mxGeometry relative="1" as="geometry"/>
                </mxCell>
                <mxCell id="280" value="&lt;font style=&quot;font-size: 30px;&quot;&gt;10&lt;/font&gt;" style="ellipse;whiteSpace=wrap;html=1;aspect=fixed;fontSize=30;" parent="1" vertex="1">
                    <mxGeometry x="1360" y="80" width="80" height="80" as="geometry"/>
                </mxCell>
                <mxCell id="284" style="edgeStyle=none;html=1;fontSize=30;" parent="1" source="270" target="270" edge="1">
                    <mxGeometry relative="1" as="geometry"/>
                </mxCell>
                <mxCell id="285" style="edgeStyle=none;html=1;fontSize=30;" parent="1" source="272" target="272" edge="1">
                    <mxGeometry relative="1" as="geometry"/>
                </mxCell>
                <mxCell id="286" value="" style="shape=table;html=1;whiteSpace=wrap;startSize=0;container=1;collapsible=0;childLayout=tableLayout;fontSize=30;" parent="1" vertex="1">
                    <mxGeometry x="1850" y="170" width="180" height="120" as="geometry"/>
                </mxCell>
                <mxCell id="287" value="" style="shape=tableRow;horizontal=0;startSize=0;swimlaneHead=0;swimlaneBody=0;top=0;left=0;bottom=0;right=0;collapsible=0;dropTarget=0;fillColor=none;points=[[0,0.5],[1,0.5]];portConstraint=eastwest;fontSize=30;" parent="286" vertex="1">
                    <mxGeometry width="180" height="40" as="geometry"/>
                </mxCell>
                <mxCell id="288" value="*" style="shape=partialRectangle;html=1;whiteSpace=wrap;connectable=0;fillColor=none;top=0;left=0;bottom=0;right=0;overflow=hidden;fontSize=30;" parent="287" vertex="1">
                    <mxGeometry width="60" height="40" as="geometry">
                        <mxRectangle width="60" height="40" as="alternateBounds"/>
                    </mxGeometry>
                </mxCell>
                <mxCell id="289" value="A" style="shape=partialRectangle;html=1;whiteSpace=wrap;connectable=0;fillColor=none;top=0;left=0;bottom=0;right=0;overflow=hidden;fontSize=30;" parent="287" vertex="1">
                    <mxGeometry x="60" width="60" height="40" as="geometry">
                        <mxRectangle width="60" height="40" as="alternateBounds"/>
                    </mxGeometry>
                </mxCell>
                <mxCell id="290" value="B" style="shape=partialRectangle;html=1;whiteSpace=wrap;connectable=0;fillColor=none;top=0;left=0;bottom=0;right=0;overflow=hidden;fontSize=30;" parent="287" vertex="1">
                    <mxGeometry x="120" width="60" height="40" as="geometry">
                        <mxRectangle width="60" height="40" as="alternateBounds"/>
                    </mxGeometry>
                </mxCell>
                <mxCell id="291" value="" style="shape=tableRow;horizontal=0;startSize=0;swimlaneHead=0;swimlaneBody=0;top=0;left=0;bottom=0;right=0;collapsible=0;dropTarget=0;fillColor=none;points=[[0,0.5],[1,0.5]];portConstraint=eastwest;fontSize=30;" parent="286" vertex="1">
                    <mxGeometry y="40" width="180" height="40" as="geometry"/>
                </mxCell>
                <mxCell id="292" value="A" style="shape=partialRectangle;html=1;whiteSpace=wrap;connectable=0;fillColor=none;top=0;left=0;bottom=0;right=0;overflow=hidden;fontSize=30;" parent="291" vertex="1">
                    <mxGeometry width="60" height="40" as="geometry">
                        <mxRectangle width="60" height="40" as="alternateBounds"/>
                    </mxGeometry>
                </mxCell>
                <mxCell id="293" value="A" style="shape=partialRectangle;html=1;whiteSpace=wrap;connectable=0;fillColor=none;top=0;left=0;bottom=0;right=0;overflow=hidden;fontSize=30;" parent="291" vertex="1">
                    <mxGeometry x="60" width="60" height="40" as="geometry">
                        <mxRectangle width="60" height="40" as="alternateBounds"/>
                    </mxGeometry>
                </mxCell>
                <mxCell id="294" value="B" style="shape=partialRectangle;html=1;whiteSpace=wrap;connectable=0;fillColor=none;top=0;left=0;bottom=0;right=0;overflow=hidden;fontSize=30;" parent="291" vertex="1">
                    <mxGeometry x="120" width="60" height="40" as="geometry">
                        <mxRectangle width="60" height="40" as="alternateBounds"/>
                    </mxGeometry>
                </mxCell>
                <mxCell id="295" value="" style="shape=tableRow;horizontal=0;startSize=0;swimlaneHead=0;swimlaneBody=0;top=0;left=0;bottom=0;right=0;collapsible=0;dropTarget=0;fillColor=none;points=[[0,0.5],[1,0.5]];portConstraint=eastwest;fontSize=30;" parent="286" vertex="1">
                    <mxGeometry y="80" width="180" height="40" as="geometry"/>
                </mxCell>
                <mxCell id="296" value="B" style="shape=partialRectangle;html=1;whiteSpace=wrap;connectable=0;fillColor=none;top=0;left=0;bottom=0;right=0;overflow=hidden;fontSize=30;" parent="295" vertex="1">
                    <mxGeometry width="60" height="40" as="geometry">
                        <mxRectangle width="60" height="40" as="alternateBounds"/>
                    </mxGeometry>
                </mxCell>
                <mxCell id="297" value="B" style="shape=partialRectangle;html=1;whiteSpace=wrap;connectable=0;fillColor=none;top=0;left=0;bottom=0;right=0;overflow=hidden;fontSize=30;" parent="295" vertex="1">
                    <mxGeometry x="60" width="60" height="40" as="geometry">
                        <mxRectangle width="60" height="40" as="alternateBounds"/>
                    </mxGeometry>
                </mxCell>
                <mxCell id="298" value="C" style="shape=partialRectangle;html=1;whiteSpace=wrap;connectable=0;fillColor=none;top=0;left=0;bottom=0;right=0;overflow=hidden;pointerEvents=1;fontSize=30;" parent="295" vertex="1">
                    <mxGeometry x="120" width="60" height="40" as="geometry">
                        <mxRectangle width="60" height="40" as="alternateBounds"/>
                    </mxGeometry>
                </mxCell>
                <mxCell id="312" value="" style="shape=table;html=1;whiteSpace=wrap;startSize=0;container=1;collapsible=0;childLayout=tableLayout;fontSize=30;" parent="1" vertex="1">
                    <mxGeometry x="1850" y="290" width="180" height="120" as="geometry"/>
                </mxCell>
                <mxCell id="313" value="" style="shape=tableRow;horizontal=0;startSize=0;swimlaneHead=0;swimlaneBody=0;top=0;left=0;bottom=0;right=0;collapsible=0;dropTarget=0;fillColor=none;points=[[0,0.5],[1,0.5]];portConstraint=eastwest;fontSize=30;" parent="312" vertex="1">
                    <mxGeometry width="180" height="40" as="geometry"/>
                </mxCell>
                <mxCell id="314" value="C" style="shape=partialRectangle;html=1;whiteSpace=wrap;connectable=0;fillColor=none;top=0;left=0;bottom=0;right=0;overflow=hidden;fontSize=30;" parent="313" vertex="1">
                    <mxGeometry width="60" height="40" as="geometry">
                        <mxRectangle width="60" height="40" as="alternateBounds"/>
                    </mxGeometry>
                </mxCell>
                <mxCell id="315" value="C" style="shape=partialRectangle;html=1;whiteSpace=wrap;connectable=0;fillColor=none;top=0;left=0;bottom=0;right=0;overflow=hidden;fontSize=30;" parent="313" vertex="1">
                    <mxGeometry x="60" width="60" height="40" as="geometry">
                        <mxRectangle width="60" height="40" as="alternateBounds"/>
                    </mxGeometry>
                </mxCell>
                <mxCell id="316" value="D" style="shape=partialRectangle;html=1;whiteSpace=wrap;connectable=0;fillColor=none;top=0;left=0;bottom=0;right=0;overflow=hidden;fontSize=30;" parent="313" vertex="1">
                    <mxGeometry x="120" width="60" height="40" as="geometry">
                        <mxRectangle width="60" height="40" as="alternateBounds"/>
                    </mxGeometry>
                </mxCell>
                <mxCell id="317" value="" style="shape=tableRow;horizontal=0;startSize=0;swimlaneHead=0;swimlaneBody=0;top=0;left=0;bottom=0;right=0;collapsible=0;dropTarget=0;fillColor=none;points=[[0,0.5],[1,0.5]];portConstraint=eastwest;fontSize=30;" parent="312" vertex="1">
                    <mxGeometry y="40" width="180" height="40" as="geometry"/>
                </mxCell>
                <mxCell id="318" value="D" style="shape=partialRectangle;html=1;whiteSpace=wrap;connectable=0;fillColor=none;top=0;left=0;bottom=0;right=0;overflow=hidden;fontSize=30;" parent="317" vertex="1">
                    <mxGeometry width="60" height="40" as="geometry">
                        <mxRectangle width="60" height="40" as="alternateBounds"/>
                    </mxGeometry>
                </mxCell>
                <mxCell id="319" value="D" style="shape=partialRectangle;html=1;whiteSpace=wrap;connectable=0;fillColor=none;top=0;left=0;bottom=0;right=0;overflow=hidden;fontSize=30;" parent="317" vertex="1">
                    <mxGeometry x="60" width="60" height="40" as="geometry">
                        <mxRectangle width="60" height="40" as="alternateBounds"/>
                    </mxGeometry>
                </mxCell>
                <mxCell id="320" value="A" style="shape=partialRectangle;html=1;whiteSpace=wrap;connectable=0;fillColor=none;top=0;left=0;bottom=0;right=0;overflow=hidden;fontSize=30;" parent="317" vertex="1">
                    <mxGeometry x="120" width="60" height="40" as="geometry">
                        <mxRectangle width="60" height="40" as="alternateBounds"/>
                    </mxGeometry>
                </mxCell>
                <mxCell id="321" value="" style="shape=tableRow;horizontal=0;startSize=0;swimlaneHead=0;swimlaneBody=0;top=0;left=0;bottom=0;right=0;collapsible=0;dropTarget=0;fillColor=none;points=[[0,0.5],[1,0.5]];portConstraint=eastwest;fontSize=30;" parent="312" vertex="1">
                    <mxGeometry y="80" width="180" height="40" as="geometry"/>
                </mxCell>
                <mxCell id="322" value="" style="shape=partialRectangle;html=1;whiteSpace=wrap;connectable=0;fillColor=none;top=0;left=0;bottom=0;right=0;overflow=hidden;fontSize=30;" parent="321" vertex="1">
                    <mxGeometry width="60" height="40" as="geometry">
                        <mxRectangle width="60" height="40" as="alternateBounds"/>
                    </mxGeometry>
                </mxCell>
                <mxCell id="323" value="" style="shape=partialRectangle;html=1;whiteSpace=wrap;connectable=0;fillColor=none;top=0;left=0;bottom=0;right=0;overflow=hidden;fontSize=30;" parent="321" vertex="1">
                    <mxGeometry x="60" width="60" height="40" as="geometry">
                        <mxRectangle width="60" height="40" as="alternateBounds"/>
                    </mxGeometry>
                </mxCell>
                <mxCell id="324" value="" style="shape=partialRectangle;html=1;whiteSpace=wrap;connectable=0;fillColor=none;top=0;left=0;bottom=0;right=0;overflow=hidden;pointerEvents=1;fontSize=30;" parent="321" vertex="1">
                    <mxGeometry x="120" width="60" height="40" as="geometry">
                        <mxRectangle width="60" height="40" as="alternateBounds"/>
                    </mxGeometry>
                </mxCell>
                <mxCell id="325" value="" style="shape=table;html=1;whiteSpace=wrap;startSize=0;container=1;collapsible=0;childLayout=tableLayout;fontSize=30;" parent="1" vertex="1">
                    <mxGeometry x="2030" y="170" width="180" height="120" as="geometry"/>
                </mxCell>
                <mxCell id="326" value="" style="shape=tableRow;horizontal=0;startSize=0;swimlaneHead=0;swimlaneBody=0;top=0;left=0;bottom=0;right=0;collapsible=0;dropTarget=0;fillColor=none;points=[[0,0.5],[1,0.5]];portConstraint=eastwest;fontSize=30;" parent="325" vertex="1">
                    <mxGeometry width="180" height="40" as="geometry"/>
                </mxCell>
                <mxCell id="327" value="C" style="shape=partialRectangle;html=1;whiteSpace=wrap;connectable=0;fillColor=none;top=0;left=0;bottom=0;right=0;overflow=hidden;fontSize=30;" parent="326" vertex="1">
                    <mxGeometry width="60" height="40" as="geometry">
                        <mxRectangle width="60" height="40" as="alternateBounds"/>
                    </mxGeometry>
                </mxCell>
                <mxCell id="328" value="D" style="shape=partialRectangle;html=1;whiteSpace=wrap;connectable=0;fillColor=none;top=0;left=0;bottom=0;right=0;overflow=hidden;fontSize=30;" parent="326" vertex="1">
                    <mxGeometry x="60" width="60" height="40" as="geometry">
                        <mxRectangle width="60" height="40" as="alternateBounds"/>
                    </mxGeometry>
                </mxCell>
                <mxCell id="329" value="" style="shape=partialRectangle;html=1;whiteSpace=wrap;connectable=0;fillColor=none;top=0;left=0;bottom=0;right=0;overflow=hidden;fontSize=30;" parent="326" vertex="1">
                    <mxGeometry x="120" width="60" height="40" as="geometry">
                        <mxRectangle width="60" height="40" as="alternateBounds"/>
                    </mxGeometry>
                </mxCell>
                <mxCell id="330" value="" style="shape=tableRow;horizontal=0;startSize=0;swimlaneHead=0;swimlaneBody=0;top=0;left=0;bottom=0;right=0;collapsible=0;dropTarget=0;fillColor=none;points=[[0,0.5],[1,0.5]];portConstraint=eastwest;fontSize=30;" parent="325" vertex="1">
                    <mxGeometry y="40" width="180" height="40" as="geometry"/>
                </mxCell>
                <mxCell id="331" value="C" style="shape=partialRectangle;html=1;whiteSpace=wrap;connectable=0;fillColor=none;top=0;left=0;bottom=0;right=0;overflow=hidden;fontSize=30;" parent="330" vertex="1">
                    <mxGeometry width="60" height="40" as="geometry">
                        <mxRectangle width="60" height="40" as="alternateBounds"/>
                    </mxGeometry>
                </mxCell>
                <mxCell id="332" value="D" style="shape=partialRectangle;html=1;whiteSpace=wrap;connectable=0;fillColor=none;top=0;left=0;bottom=0;right=0;overflow=hidden;fontSize=30;" parent="330" vertex="1">
                    <mxGeometry x="60" width="60" height="40" as="geometry">
                        <mxRectangle width="60" height="40" as="alternateBounds"/>
                    </mxGeometry>
                </mxCell>
                <mxCell id="333" value="" style="shape=partialRectangle;html=1;whiteSpace=wrap;connectable=0;fillColor=none;top=0;left=0;bottom=0;right=0;overflow=hidden;fontSize=30;" parent="330" vertex="1">
                    <mxGeometry x="120" width="60" height="40" as="geometry">
                        <mxRectangle width="60" height="40" as="alternateBounds"/>
                    </mxGeometry>
                </mxCell>
                <mxCell id="334" value="" style="shape=tableRow;horizontal=0;startSize=0;swimlaneHead=0;swimlaneBody=0;top=0;left=0;bottom=0;right=0;collapsible=0;dropTarget=0;fillColor=none;points=[[0,0.5],[1,0.5]];portConstraint=eastwest;fontSize=30;" parent="325" vertex="1">
                    <mxGeometry y="80" width="180" height="40" as="geometry"/>
                </mxCell>
                <mxCell id="335" value="D" style="shape=partialRectangle;html=1;whiteSpace=wrap;connectable=0;fillColor=none;top=0;left=0;bottom=0;right=0;overflow=hidden;fontSize=30;" parent="334" vertex="1">
                    <mxGeometry width="60" height="40" as="geometry">
                        <mxRectangle width="60" height="40" as="alternateBounds"/>
                    </mxGeometry>
                </mxCell>
                <mxCell id="336" value="A" style="shape=partialRectangle;html=1;whiteSpace=wrap;connectable=0;fillColor=none;top=0;left=0;bottom=0;right=0;overflow=hidden;fontSize=30;" parent="334" vertex="1">
                    <mxGeometry x="60" width="60" height="40" as="geometry">
                        <mxRectangle width="60" height="40" as="alternateBounds"/>
                    </mxGeometry>
                </mxCell>
                <mxCell id="337" value="" style="shape=partialRectangle;html=1;whiteSpace=wrap;connectable=0;fillColor=none;top=0;left=0;bottom=0;right=0;overflow=hidden;pointerEvents=1;fontSize=30;" parent="334" vertex="1">
                    <mxGeometry x="120" width="60" height="40" as="geometry">
                        <mxRectangle width="60" height="40" as="alternateBounds"/>
                    </mxGeometry>
                </mxCell>
                <mxCell id="338" value="" style="shape=table;html=1;whiteSpace=wrap;startSize=0;container=1;collapsible=0;childLayout=tableLayout;fontSize=30;" parent="1" vertex="1">
                    <mxGeometry x="2030" y="290" width="180" height="120" as="geometry"/>
                </mxCell>
                <mxCell id="339" value="" style="shape=tableRow;horizontal=0;startSize=0;swimlaneHead=0;swimlaneBody=0;top=0;left=0;bottom=0;right=0;collapsible=0;dropTarget=0;fillColor=none;points=[[0,0.5],[1,0.5]];portConstraint=eastwest;fontSize=30;" parent="338" vertex="1">
                    <mxGeometry width="180" height="40" as="geometry"/>
                </mxCell>
                <mxCell id="340" value="A" style="shape=partialRectangle;html=1;whiteSpace=wrap;connectable=0;fillColor=none;top=0;left=0;bottom=0;right=0;overflow=hidden;fontSize=30;" parent="339" vertex="1">
                    <mxGeometry width="60" height="40" as="geometry">
                        <mxRectangle width="60" height="40" as="alternateBounds"/>
                    </mxGeometry>
                </mxCell>
                <mxCell id="341" value="B" style="shape=partialRectangle;html=1;whiteSpace=wrap;connectable=0;fillColor=none;top=0;left=0;bottom=0;right=0;overflow=hidden;fontSize=30;" parent="339" vertex="1">
                    <mxGeometry x="60" width="60" height="40" as="geometry">
                        <mxRectangle width="60" height="40" as="alternateBounds"/>
                    </mxGeometry>
                </mxCell>
                <mxCell id="342" value="" style="shape=partialRectangle;html=1;whiteSpace=wrap;connectable=0;fillColor=none;top=0;left=0;bottom=0;right=0;overflow=hidden;fontSize=30;" parent="339" vertex="1">
                    <mxGeometry x="120" width="60" height="40" as="geometry">
                        <mxRectangle width="60" height="40" as="alternateBounds"/>
                    </mxGeometry>
                </mxCell>
                <mxCell id="343" value="" style="shape=tableRow;horizontal=0;startSize=0;swimlaneHead=0;swimlaneBody=0;top=0;left=0;bottom=0;right=0;collapsible=0;dropTarget=0;fillColor=none;points=[[0,0.5],[1,0.5]];portConstraint=eastwest;fontSize=30;" parent="338" vertex="1">
                    <mxGeometry y="40" width="180" height="40" as="geometry"/>
                </mxCell>
                <mxCell id="344" value="B" style="shape=partialRectangle;html=1;whiteSpace=wrap;connectable=0;fillColor=none;top=0;left=0;bottom=0;right=0;overflow=hidden;fontSize=30;" parent="343" vertex="1">
                    <mxGeometry width="60" height="40" as="geometry">
                        <mxRectangle width="60" height="40" as="alternateBounds"/>
                    </mxGeometry>
                </mxCell>
                <mxCell id="345" value="C" style="shape=partialRectangle;html=1;whiteSpace=wrap;connectable=0;fillColor=none;top=0;left=0;bottom=0;right=0;overflow=hidden;fontSize=30;" parent="343" vertex="1">
                    <mxGeometry x="60" width="60" height="40" as="geometry">
                        <mxRectangle width="60" height="40" as="alternateBounds"/>
                    </mxGeometry>
                </mxCell>
                <mxCell id="346" value="" style="shape=partialRectangle;html=1;whiteSpace=wrap;connectable=0;fillColor=none;top=0;left=0;bottom=0;right=0;overflow=hidden;fontSize=30;" parent="343" vertex="1">
                    <mxGeometry x="120" width="60" height="40" as="geometry">
                        <mxRectangle width="60" height="40" as="alternateBounds"/>
                    </mxGeometry>
                </mxCell>
                <mxCell id="347" value="" style="shape=tableRow;horizontal=0;startSize=0;swimlaneHead=0;swimlaneBody=0;top=0;left=0;bottom=0;right=0;collapsible=0;dropTarget=0;fillColor=none;points=[[0,0.5],[1,0.5]];portConstraint=eastwest;fontSize=30;" parent="338" vertex="1">
                    <mxGeometry y="80" width="180" height="40" as="geometry"/>
                </mxCell>
                <mxCell id="348" value="" style="shape=partialRectangle;html=1;whiteSpace=wrap;connectable=0;fillColor=none;top=0;left=0;bottom=0;right=0;overflow=hidden;fontSize=30;" parent="347" vertex="1">
                    <mxGeometry width="60" height="40" as="geometry">
                        <mxRectangle width="60" height="40" as="alternateBounds"/>
                    </mxGeometry>
                </mxCell>
                <mxCell id="349" value="" style="shape=partialRectangle;html=1;whiteSpace=wrap;connectable=0;fillColor=none;top=0;left=0;bottom=0;right=0;overflow=hidden;fontSize=30;" parent="347" vertex="1">
                    <mxGeometry x="60" width="60" height="40" as="geometry">
                        <mxRectangle width="60" height="40" as="alternateBounds"/>
                    </mxGeometry>
                </mxCell>
                <mxCell id="350" value="" style="shape=partialRectangle;html=1;whiteSpace=wrap;connectable=0;fillColor=none;top=0;left=0;bottom=0;right=0;overflow=hidden;pointerEvents=1;fontSize=30;" parent="347" vertex="1">
                    <mxGeometry x="120" width="60" height="40" as="geometry">
                        <mxRectangle width="60" height="40" as="alternateBounds"/>
                    </mxGeometry>
                </mxCell>
                <mxCell id="356" style="edgeStyle=none;html=1;fontSize=30;" parent="1" source="351" target="355" edge="1">
                    <mxGeometry relative="1" as="geometry"/>
                </mxCell>
                <mxCell id="351" value="&lt;font style=&quot;font-size: 30px;&quot;&gt;AA&lt;/font&gt;" style="ellipse;whiteSpace=wrap;html=1;aspect=fixed;fontSize=30;" parent="1" vertex="1">
                    <mxGeometry x="1840" y="440" width="80" height="80" as="geometry"/>
                </mxCell>
                <mxCell id="359" style="edgeStyle=none;html=1;fontSize=30;" parent="1" source="352" target="355" edge="1">
                    <mxGeometry relative="1" as="geometry"/>
                </mxCell>
                <mxCell id="352" value="DB" style="ellipse;whiteSpace=wrap;html=1;aspect=fixed;fontSize=30;" parent="1" vertex="1">
                    <mxGeometry x="2110" y="440" width="80" height="80" as="geometry"/>
                </mxCell>
                <mxCell id="357" style="edgeStyle=none;html=1;fontSize=30;" parent="1" source="353" target="355" edge="1">
                    <mxGeometry relative="1" as="geometry"/>
                </mxCell>
                <mxCell id="353" value="BD" style="ellipse;whiteSpace=wrap;html=1;aspect=fixed;fontSize=30;" parent="1" vertex="1">
                    <mxGeometry x="1930" y="440" width="80" height="80" as="geometry"/>
                </mxCell>
                <mxCell id="358" style="edgeStyle=none;html=1;fontSize=30;" parent="1" source="354" target="355" edge="1">
                    <mxGeometry relative="1" as="geometry"/>
                </mxCell>
                <mxCell id="354" value="CC" style="ellipse;whiteSpace=wrap;html=1;aspect=fixed;fontSize=30;" parent="1" vertex="1">
                    <mxGeometry x="2020" y="440" width="80" height="80" as="geometry"/>
                </mxCell>
                <mxCell id="355" value="A" style="ellipse;whiteSpace=wrap;html=1;aspect=fixed;fontSize=30;" parent="1" vertex="1">
                    <mxGeometry x="1990" y="610" width="80" height="80" as="geometry"/>
                </mxCell>
                <mxCell id="360" value="" style="shape=table;html=1;whiteSpace=wrap;startSize=0;container=1;collapsible=0;childLayout=tableLayout;fontSize=30;" parent="1" vertex="1">
                    <mxGeometry x="2330" y="160" width="180" height="120" as="geometry"/>
                </mxCell>
                <mxCell id="361" value="" style="shape=tableRow;horizontal=0;startSize=0;swimlaneHead=0;swimlaneBody=0;top=0;left=0;bottom=0;right=0;collapsible=0;dropTarget=0;fillColor=none;points=[[0,0.5],[1,0.5]];portConstraint=eastwest;fontSize=30;" parent="360" vertex="1">
                    <mxGeometry width="180" height="40" as="geometry"/>
                </mxCell>
                <mxCell id="362" value="*" style="shape=partialRectangle;html=1;whiteSpace=wrap;connectable=0;fillColor=none;top=0;left=0;bottom=0;right=0;overflow=hidden;fontSize=30;" parent="361" vertex="1">
                    <mxGeometry width="60" height="40" as="geometry">
                        <mxRectangle width="60" height="40" as="alternateBounds"/>
                    </mxGeometry>
                </mxCell>
                <mxCell id="363" value="A" style="shape=partialRectangle;html=1;whiteSpace=wrap;connectable=0;fillColor=none;top=0;left=0;bottom=0;right=0;overflow=hidden;fontSize=30;" parent="361" vertex="1">
                    <mxGeometry x="60" width="60" height="40" as="geometry">
                        <mxRectangle width="60" height="40" as="alternateBounds"/>
                    </mxGeometry>
                </mxCell>
                <mxCell id="364" value="B" style="shape=partialRectangle;html=1;whiteSpace=wrap;connectable=0;fillColor=none;top=0;left=0;bottom=0;right=0;overflow=hidden;fontSize=30;" parent="361" vertex="1">
                    <mxGeometry x="120" width="60" height="40" as="geometry">
                        <mxRectangle width="60" height="40" as="alternateBounds"/>
                    </mxGeometry>
                </mxCell>
                <mxCell id="365" value="" style="shape=tableRow;horizontal=0;startSize=0;swimlaneHead=0;swimlaneBody=0;top=0;left=0;bottom=0;right=0;collapsible=0;dropTarget=0;fillColor=none;points=[[0,0.5],[1,0.5]];portConstraint=eastwest;fontSize=30;" parent="360" vertex="1">
                    <mxGeometry y="40" width="180" height="40" as="geometry"/>
                </mxCell>
                <mxCell id="366" value="A" style="shape=partialRectangle;html=1;whiteSpace=wrap;connectable=0;fillColor=none;top=0;left=0;bottom=0;right=0;overflow=hidden;fontSize=30;" parent="365" vertex="1">
                    <mxGeometry width="60" height="40" as="geometry">
                        <mxRectangle width="60" height="40" as="alternateBounds"/>
                    </mxGeometry>
                </mxCell>
                <mxCell id="367" value="A" style="shape=partialRectangle;html=1;whiteSpace=wrap;connectable=0;fillColor=none;top=0;left=0;bottom=0;right=0;overflow=hidden;fontSize=30;" parent="365" vertex="1">
                    <mxGeometry x="60" width="60" height="40" as="geometry">
                        <mxRectangle width="60" height="40" as="alternateBounds"/>
                    </mxGeometry>
                </mxCell>
                <mxCell id="368" value="B" style="shape=partialRectangle;html=1;whiteSpace=wrap;connectable=0;fillColor=none;top=0;left=0;bottom=0;right=0;overflow=hidden;fontSize=30;" parent="365" vertex="1">
                    <mxGeometry x="120" width="60" height="40" as="geometry">
                        <mxRectangle width="60" height="40" as="alternateBounds"/>
                    </mxGeometry>
                </mxCell>
                <mxCell id="369" value="" style="shape=tableRow;horizontal=0;startSize=0;swimlaneHead=0;swimlaneBody=0;top=0;left=0;bottom=0;right=0;collapsible=0;dropTarget=0;fillColor=none;points=[[0,0.5],[1,0.5]];portConstraint=eastwest;fontSize=30;" parent="360" vertex="1">
                    <mxGeometry y="80" width="180" height="40" as="geometry"/>
                </mxCell>
                <mxCell id="370" value="B" style="shape=partialRectangle;html=1;whiteSpace=wrap;connectable=0;fillColor=none;top=0;left=0;bottom=0;right=0;overflow=hidden;fontSize=30;" parent="369" vertex="1">
                    <mxGeometry width="60" height="40" as="geometry">
                        <mxRectangle width="60" height="40" as="alternateBounds"/>
                    </mxGeometry>
                </mxCell>
                <mxCell id="371" value="B" style="shape=partialRectangle;html=1;whiteSpace=wrap;connectable=0;fillColor=none;top=0;left=0;bottom=0;right=0;overflow=hidden;fontSize=30;" parent="369" vertex="1">
                    <mxGeometry x="60" width="60" height="40" as="geometry">
                        <mxRectangle width="60" height="40" as="alternateBounds"/>
                    </mxGeometry>
                </mxCell>
                <mxCell id="372" value="C" style="shape=partialRectangle;html=1;whiteSpace=wrap;connectable=0;fillColor=none;top=0;left=0;bottom=0;right=0;overflow=hidden;pointerEvents=1;fontSize=30;" parent="369" vertex="1">
                    <mxGeometry x="120" width="60" height="40" as="geometry">
                        <mxRectangle width="60" height="40" as="alternateBounds"/>
                    </mxGeometry>
                </mxCell>
                <mxCell id="373" value="" style="shape=table;html=1;whiteSpace=wrap;startSize=0;container=1;collapsible=0;childLayout=tableLayout;fontSize=30;" parent="1" vertex="1">
                    <mxGeometry x="2330" y="280" width="180" height="120" as="geometry"/>
                </mxCell>
                <mxCell id="374" value="" style="shape=tableRow;horizontal=0;startSize=0;swimlaneHead=0;swimlaneBody=0;top=0;left=0;bottom=0;right=0;collapsible=0;dropTarget=0;fillColor=none;points=[[0,0.5],[1,0.5]];portConstraint=eastwest;fontSize=30;" parent="373" vertex="1">
                    <mxGeometry width="180" height="40" as="geometry"/>
                </mxCell>
                <mxCell id="375" value="C" style="shape=partialRectangle;html=1;whiteSpace=wrap;connectable=0;fillColor=none;top=0;left=0;bottom=0;right=0;overflow=hidden;fontSize=30;" parent="374" vertex="1">
                    <mxGeometry width="60" height="40" as="geometry">
                        <mxRectangle width="60" height="40" as="alternateBounds"/>
                    </mxGeometry>
                </mxCell>
                <mxCell id="376" value="C" style="shape=partialRectangle;html=1;whiteSpace=wrap;connectable=0;fillColor=none;top=0;left=0;bottom=0;right=0;overflow=hidden;fontSize=30;" parent="374" vertex="1">
                    <mxGeometry x="60" width="60" height="40" as="geometry">
                        <mxRectangle width="60" height="40" as="alternateBounds"/>
                    </mxGeometry>
                </mxCell>
                <mxCell id="377" value="D" style="shape=partialRectangle;html=1;whiteSpace=wrap;connectable=0;fillColor=none;top=0;left=0;bottom=0;right=0;overflow=hidden;fontSize=30;" parent="374" vertex="1">
                    <mxGeometry x="120" width="60" height="40" as="geometry">
                        <mxRectangle width="60" height="40" as="alternateBounds"/>
                    </mxGeometry>
                </mxCell>
                <mxCell id="378" value="" style="shape=tableRow;horizontal=0;startSize=0;swimlaneHead=0;swimlaneBody=0;top=0;left=0;bottom=0;right=0;collapsible=0;dropTarget=0;fillColor=none;points=[[0,0.5],[1,0.5]];portConstraint=eastwest;fontSize=30;" parent="373" vertex="1">
                    <mxGeometry y="40" width="180" height="40" as="geometry"/>
                </mxCell>
                <mxCell id="379" value="D" style="shape=partialRectangle;html=1;whiteSpace=wrap;connectable=0;fillColor=none;top=0;left=0;bottom=0;right=0;overflow=hidden;fontSize=30;" parent="378" vertex="1">
                    <mxGeometry width="60" height="40" as="geometry">
                        <mxRectangle width="60" height="40" as="alternateBounds"/>
                    </mxGeometry>
                </mxCell>
                <mxCell id="380" value="D" style="shape=partialRectangle;html=1;whiteSpace=wrap;connectable=0;fillColor=none;top=0;left=0;bottom=0;right=0;overflow=hidden;fontSize=30;" parent="378" vertex="1">
                    <mxGeometry x="60" width="60" height="40" as="geometry">
                        <mxRectangle width="60" height="40" as="alternateBounds"/>
                    </mxGeometry>
                </mxCell>
                <mxCell id="381" value="A" style="shape=partialRectangle;html=1;whiteSpace=wrap;connectable=0;fillColor=none;top=0;left=0;bottom=0;right=0;overflow=hidden;fontSize=30;" parent="378" vertex="1">
                    <mxGeometry x="120" width="60" height="40" as="geometry">
                        <mxRectangle width="60" height="40" as="alternateBounds"/>
                    </mxGeometry>
                </mxCell>
                <mxCell id="382" value="" style="shape=tableRow;horizontal=0;startSize=0;swimlaneHead=0;swimlaneBody=0;top=0;left=0;bottom=0;right=0;collapsible=0;dropTarget=0;fillColor=none;points=[[0,0.5],[1,0.5]];portConstraint=eastwest;fontSize=30;" parent="373" vertex="1">
                    <mxGeometry y="80" width="180" height="40" as="geometry"/>
                </mxCell>
                <mxCell id="383" value="" style="shape=partialRectangle;html=1;whiteSpace=wrap;connectable=0;fillColor=none;top=0;left=0;bottom=0;right=0;overflow=hidden;fontSize=30;" parent="382" vertex="1">
                    <mxGeometry width="60" height="40" as="geometry">
                        <mxRectangle width="60" height="40" as="alternateBounds"/>
                    </mxGeometry>
                </mxCell>
                <mxCell id="384" value="" style="shape=partialRectangle;html=1;whiteSpace=wrap;connectable=0;fillColor=none;top=0;left=0;bottom=0;right=0;overflow=hidden;fontSize=30;" parent="382" vertex="1">
                    <mxGeometry x="60" width="60" height="40" as="geometry">
                        <mxRectangle width="60" height="40" as="alternateBounds"/>
                    </mxGeometry>
                </mxCell>
                <mxCell id="385" value="" style="shape=partialRectangle;html=1;whiteSpace=wrap;connectable=0;fillColor=none;top=0;left=0;bottom=0;right=0;overflow=hidden;pointerEvents=1;fontSize=30;" parent="382" vertex="1">
                    <mxGeometry x="120" width="60" height="40" as="geometry">
                        <mxRectangle width="60" height="40" as="alternateBounds"/>
                    </mxGeometry>
                </mxCell>
                <mxCell id="386" value="" style="shape=table;html=1;whiteSpace=wrap;startSize=0;container=1;collapsible=0;childLayout=tableLayout;fontSize=30;" parent="1" vertex="1">
                    <mxGeometry x="2510" y="160" width="180" height="120" as="geometry"/>
                </mxCell>
                <mxCell id="387" value="" style="shape=tableRow;horizontal=0;startSize=0;swimlaneHead=0;swimlaneBody=0;top=0;left=0;bottom=0;right=0;collapsible=0;dropTarget=0;fillColor=none;points=[[0,0.5],[1,0.5]];portConstraint=eastwest;fontSize=30;" parent="386" vertex="1">
                    <mxGeometry width="180" height="40" as="geometry"/>
                </mxCell>
                <mxCell id="388" value="C" style="shape=partialRectangle;html=1;whiteSpace=wrap;connectable=0;fillColor=none;top=0;left=0;bottom=0;right=0;overflow=hidden;fontSize=30;" parent="387" vertex="1">
                    <mxGeometry width="60" height="40" as="geometry">
                        <mxRectangle width="60" height="40" as="alternateBounds"/>
                    </mxGeometry>
                </mxCell>
                <mxCell id="389" value="D" style="shape=partialRectangle;html=1;whiteSpace=wrap;connectable=0;fillColor=none;top=0;left=0;bottom=0;right=0;overflow=hidden;fontSize=30;" parent="387" vertex="1">
                    <mxGeometry x="60" width="60" height="40" as="geometry">
                        <mxRectangle width="60" height="40" as="alternateBounds"/>
                    </mxGeometry>
                </mxCell>
                <mxCell id="390" value="" style="shape=partialRectangle;html=1;whiteSpace=wrap;connectable=0;fillColor=none;top=0;left=0;bottom=0;right=0;overflow=hidden;fontSize=30;" parent="387" vertex="1">
                    <mxGeometry x="120" width="60" height="40" as="geometry">
                        <mxRectangle width="60" height="40" as="alternateBounds"/>
                    </mxGeometry>
                </mxCell>
                <mxCell id="391" value="" style="shape=tableRow;horizontal=0;startSize=0;swimlaneHead=0;swimlaneBody=0;top=0;left=0;bottom=0;right=0;collapsible=0;dropTarget=0;fillColor=none;points=[[0,0.5],[1,0.5]];portConstraint=eastwest;fontSize=30;" parent="386" vertex="1">
                    <mxGeometry y="40" width="180" height="40" as="geometry"/>
                </mxCell>
                <mxCell id="392" value="C" style="shape=partialRectangle;html=1;whiteSpace=wrap;connectable=0;fillColor=none;top=0;left=0;bottom=0;right=0;overflow=hidden;fontSize=30;" parent="391" vertex="1">
                    <mxGeometry width="60" height="40" as="geometry">
                        <mxRectangle width="60" height="40" as="alternateBounds"/>
                    </mxGeometry>
                </mxCell>
                <mxCell id="393" value="D" style="shape=partialRectangle;html=1;whiteSpace=wrap;connectable=0;fillColor=none;top=0;left=0;bottom=0;right=0;overflow=hidden;fontSize=30;" parent="391" vertex="1">
                    <mxGeometry x="60" width="60" height="40" as="geometry">
                        <mxRectangle width="60" height="40" as="alternateBounds"/>
                    </mxGeometry>
                </mxCell>
                <mxCell id="394" value="" style="shape=partialRectangle;html=1;whiteSpace=wrap;connectable=0;fillColor=none;top=0;left=0;bottom=0;right=0;overflow=hidden;fontSize=30;" parent="391" vertex="1">
                    <mxGeometry x="120" width="60" height="40" as="geometry">
                        <mxRectangle width="60" height="40" as="alternateBounds"/>
                    </mxGeometry>
                </mxCell>
                <mxCell id="395" value="" style="shape=tableRow;horizontal=0;startSize=0;swimlaneHead=0;swimlaneBody=0;top=0;left=0;bottom=0;right=0;collapsible=0;dropTarget=0;fillColor=none;points=[[0,0.5],[1,0.5]];portConstraint=eastwest;fontSize=30;" parent="386" vertex="1">
                    <mxGeometry y="80" width="180" height="40" as="geometry"/>
                </mxCell>
                <mxCell id="396" value="D" style="shape=partialRectangle;html=1;whiteSpace=wrap;connectable=0;fillColor=none;top=0;left=0;bottom=0;right=0;overflow=hidden;fontSize=30;" parent="395" vertex="1">
                    <mxGeometry width="60" height="40" as="geometry">
                        <mxRectangle width="60" height="40" as="alternateBounds"/>
                    </mxGeometry>
                </mxCell>
                <mxCell id="397" value="A" style="shape=partialRectangle;html=1;whiteSpace=wrap;connectable=0;fillColor=none;top=0;left=0;bottom=0;right=0;overflow=hidden;fontSize=30;" parent="395" vertex="1">
                    <mxGeometry x="60" width="60" height="40" as="geometry">
                        <mxRectangle width="60" height="40" as="alternateBounds"/>
                    </mxGeometry>
                </mxCell>
                <mxCell id="398" value="" style="shape=partialRectangle;html=1;whiteSpace=wrap;connectable=0;fillColor=none;top=0;left=0;bottom=0;right=0;overflow=hidden;pointerEvents=1;fontSize=30;" parent="395" vertex="1">
                    <mxGeometry x="120" width="60" height="40" as="geometry">
                        <mxRectangle width="60" height="40" as="alternateBounds"/>
                    </mxGeometry>
                </mxCell>
                <mxCell id="399" value="" style="shape=table;html=1;whiteSpace=wrap;startSize=0;container=1;collapsible=0;childLayout=tableLayout;fontSize=30;" parent="1" vertex="1">
                    <mxGeometry x="2510" y="280" width="180" height="120" as="geometry"/>
                </mxCell>
                <mxCell id="400" value="" style="shape=tableRow;horizontal=0;startSize=0;swimlaneHead=0;swimlaneBody=0;top=0;left=0;bottom=0;right=0;collapsible=0;dropTarget=0;fillColor=none;points=[[0,0.5],[1,0.5]];portConstraint=eastwest;fontSize=30;" parent="399" vertex="1">
                    <mxGeometry width="180" height="40" as="geometry"/>
                </mxCell>
                <mxCell id="401" value="A" style="shape=partialRectangle;html=1;whiteSpace=wrap;connectable=0;fillColor=none;top=0;left=0;bottom=0;right=0;overflow=hidden;fontSize=30;" parent="400" vertex="1">
                    <mxGeometry width="60" height="40" as="geometry">
                        <mxRectangle width="60" height="40" as="alternateBounds"/>
                    </mxGeometry>
                </mxCell>
                <mxCell id="402" value="B" style="shape=partialRectangle;html=1;whiteSpace=wrap;connectable=0;fillColor=none;top=0;left=0;bottom=0;right=0;overflow=hidden;fontSize=30;" parent="400" vertex="1">
                    <mxGeometry x="60" width="60" height="40" as="geometry">
                        <mxRectangle width="60" height="40" as="alternateBounds"/>
                    </mxGeometry>
                </mxCell>
                <mxCell id="403" value="" style="shape=partialRectangle;html=1;whiteSpace=wrap;connectable=0;fillColor=none;top=0;left=0;bottom=0;right=0;overflow=hidden;fontSize=30;" parent="400" vertex="1">
                    <mxGeometry x="120" width="60" height="40" as="geometry">
                        <mxRectangle width="60" height="40" as="alternateBounds"/>
                    </mxGeometry>
                </mxCell>
                <mxCell id="404" value="" style="shape=tableRow;horizontal=0;startSize=0;swimlaneHead=0;swimlaneBody=0;top=0;left=0;bottom=0;right=0;collapsible=0;dropTarget=0;fillColor=none;points=[[0,0.5],[1,0.5]];portConstraint=eastwest;fontSize=30;" parent="399" vertex="1">
                    <mxGeometry y="40" width="180" height="40" as="geometry"/>
                </mxCell>
                <mxCell id="405" value="B" style="shape=partialRectangle;html=1;whiteSpace=wrap;connectable=0;fillColor=none;top=0;left=0;bottom=0;right=0;overflow=hidden;fontSize=30;" parent="404" vertex="1">
                    <mxGeometry width="60" height="40" as="geometry">
                        <mxRectangle width="60" height="40" as="alternateBounds"/>
                    </mxGeometry>
                </mxCell>
                <mxCell id="406" value="C" style="shape=partialRectangle;html=1;whiteSpace=wrap;connectable=0;fillColor=none;top=0;left=0;bottom=0;right=0;overflow=hidden;fontSize=30;" parent="404" vertex="1">
                    <mxGeometry x="60" width="60" height="40" as="geometry">
                        <mxRectangle width="60" height="40" as="alternateBounds"/>
                    </mxGeometry>
                </mxCell>
                <mxCell id="407" value="" style="shape=partialRectangle;html=1;whiteSpace=wrap;connectable=0;fillColor=none;top=0;left=0;bottom=0;right=0;overflow=hidden;fontSize=30;" parent="404" vertex="1">
                    <mxGeometry x="120" width="60" height="40" as="geometry">
                        <mxRectangle width="60" height="40" as="alternateBounds"/>
                    </mxGeometry>
                </mxCell>
                <mxCell id="408" value="" style="shape=tableRow;horizontal=0;startSize=0;swimlaneHead=0;swimlaneBody=0;top=0;left=0;bottom=0;right=0;collapsible=0;dropTarget=0;fillColor=none;points=[[0,0.5],[1,0.5]];portConstraint=eastwest;fontSize=30;" parent="399" vertex="1">
                    <mxGeometry y="80" width="180" height="40" as="geometry"/>
                </mxCell>
                <mxCell id="409" value="" style="shape=partialRectangle;html=1;whiteSpace=wrap;connectable=0;fillColor=none;top=0;left=0;bottom=0;right=0;overflow=hidden;fontSize=30;" parent="408" vertex="1">
                    <mxGeometry width="60" height="40" as="geometry">
                        <mxRectangle width="60" height="40" as="alternateBounds"/>
                    </mxGeometry>
                </mxCell>
                <mxCell id="410" value="" style="shape=partialRectangle;html=1;whiteSpace=wrap;connectable=0;fillColor=none;top=0;left=0;bottom=0;right=0;overflow=hidden;fontSize=30;" parent="408" vertex="1">
                    <mxGeometry x="60" width="60" height="40" as="geometry">
                        <mxRectangle width="60" height="40" as="alternateBounds"/>
                    </mxGeometry>
                </mxCell>
                <mxCell id="411" value="" style="shape=partialRectangle;html=1;whiteSpace=wrap;connectable=0;fillColor=none;top=0;left=0;bottom=0;right=0;overflow=hidden;pointerEvents=1;fontSize=30;" parent="408" vertex="1">
                    <mxGeometry x="120" width="60" height="40" as="geometry">
                        <mxRectangle width="60" height="40" as="alternateBounds"/>
                    </mxGeometry>
                </mxCell>
                <mxCell id="412" style="edgeStyle=none;html=1;fontSize=30;" parent="1" source="413" target="420" edge="1">
                    <mxGeometry relative="1" as="geometry"/>
                </mxCell>
                <mxCell id="413" value="&lt;font style=&quot;font-size: 30px;&quot;&gt;AA&lt;/font&gt;" style="ellipse;whiteSpace=wrap;html=1;aspect=fixed;fontSize=30;" parent="1" vertex="1">
                    <mxGeometry x="2320" y="430" width="80" height="80" as="geometry"/>
                </mxCell>
                <mxCell id="414" style="edgeStyle=none;html=1;fontSize=30;" parent="1" source="415" target="423" edge="1">
                    <mxGeometry relative="1" as="geometry"/>
                </mxCell>
                <mxCell id="415" value="DA" style="ellipse;whiteSpace=wrap;html=1;aspect=fixed;fontSize=30;" parent="1" vertex="1">
                    <mxGeometry x="2590" y="430" width="80" height="80" as="geometry"/>
                </mxCell>
                <mxCell id="416" style="edgeStyle=none;html=1;fontSize=30;" parent="1" source="417" target="421" edge="1">
                    <mxGeometry relative="1" as="geometry"/>
                </mxCell>
                <mxCell id="417" value="BA" style="ellipse;whiteSpace=wrap;html=1;aspect=fixed;fontSize=30;" parent="1" vertex="1">
                    <mxGeometry x="2410" y="430" width="80" height="80" as="geometry"/>
                </mxCell>
                <mxCell id="418" style="edgeStyle=none;html=1;fontSize=30;" parent="1" source="419" target="422" edge="1">
                    <mxGeometry relative="1" as="geometry"/>
                </mxCell>
                <mxCell id="419" value="CA" style="ellipse;whiteSpace=wrap;html=1;aspect=fixed;fontSize=30;" parent="1" vertex="1">
                    <mxGeometry x="2500" y="430" width="80" height="80" as="geometry"/>
                </mxCell>
                <mxCell id="420" value="A" style="ellipse;whiteSpace=wrap;html=1;aspect=fixed;fontSize=30;" parent="1" vertex="1">
                    <mxGeometry x="2320" y="560" width="80" height="80" as="geometry"/>
                </mxCell>
                <mxCell id="421" value="B" style="ellipse;whiteSpace=wrap;html=1;aspect=fixed;fontSize=30;" parent="1" vertex="1">
                    <mxGeometry x="2410" y="560" width="80" height="80" as="geometry"/>
                </mxCell>
                <mxCell id="422" value="C" style="ellipse;whiteSpace=wrap;html=1;aspect=fixed;fontSize=30;" parent="1" vertex="1">
                    <mxGeometry x="2500" y="560" width="80" height="80" as="geometry"/>
                </mxCell>
                <mxCell id="423" value="D" style="ellipse;whiteSpace=wrap;html=1;aspect=fixed;fontSize=30;" parent="1" vertex="1">
                    <mxGeometry x="2590" y="560" width="80" height="80" as="geometry"/>
                </mxCell>
                <mxCell id="500" style="edgeStyle=none;html=1;fontSize=30;" parent="1" source="501" target="509" edge="1">
                    <mxGeometry relative="1" as="geometry"/>
                </mxCell>
                <mxCell id="501" value="&lt;font style=&quot;font-size: 30px;&quot;&gt;AB&lt;/font&gt;" style="ellipse;whiteSpace=wrap;html=1;aspect=fixed;fontSize=30;" parent="1" vertex="1">
                    <mxGeometry x="2320" y="650" width="80" height="80" as="geometry"/>
                </mxCell>
                <mxCell id="502" style="edgeStyle=none;html=1;fontSize=30;" parent="1" source="503" target="508" edge="1">
                    <mxGeometry relative="1" as="geometry"/>
                </mxCell>
                <mxCell id="503" value="DB" style="ellipse;whiteSpace=wrap;html=1;aspect=fixed;fontSize=30;" parent="1" vertex="1">
                    <mxGeometry x="2590" y="650" width="80" height="80" as="geometry"/>
                </mxCell>
                <mxCell id="504" style="edgeStyle=none;html=1;fontSize=30;" parent="1" source="505" target="510" edge="1">
                    <mxGeometry relative="1" as="geometry"/>
                </mxCell>
                <mxCell id="505" value="BB" style="ellipse;whiteSpace=wrap;html=1;aspect=fixed;fontSize=30;" parent="1" vertex="1">
                    <mxGeometry x="2410" y="650" width="80" height="80" as="geometry"/>
                </mxCell>
                <mxCell id="506" style="edgeStyle=none;html=1;fontSize=30;" parent="1" source="507" target="511" edge="1">
                    <mxGeometry relative="1" as="geometry"/>
                </mxCell>
                <mxCell id="507" value="CB" style="ellipse;whiteSpace=wrap;html=1;aspect=fixed;fontSize=30;" parent="1" vertex="1">
                    <mxGeometry x="2500" y="650" width="80" height="80" as="geometry"/>
                </mxCell>
                <mxCell id="508" value="A" style="ellipse;whiteSpace=wrap;html=1;aspect=fixed;fontSize=30;" parent="1" vertex="1">
                    <mxGeometry x="2320" y="780" width="80" height="80" as="geometry"/>
                </mxCell>
                <mxCell id="509" value="B" style="ellipse;whiteSpace=wrap;html=1;aspect=fixed;fontSize=30;" parent="1" vertex="1">
                    <mxGeometry x="2410" y="780" width="80" height="80" as="geometry"/>
                </mxCell>
                <mxCell id="510" value="C" style="ellipse;whiteSpace=wrap;html=1;aspect=fixed;fontSize=30;" parent="1" vertex="1">
                    <mxGeometry x="2500" y="780" width="80" height="80" as="geometry"/>
                </mxCell>
                <mxCell id="511" value="D" style="ellipse;whiteSpace=wrap;html=1;aspect=fixed;fontSize=30;" parent="1" vertex="1">
                    <mxGeometry x="2590" y="780" width="80" height="80" as="geometry"/>
                </mxCell>
                <mxCell id="514" value="A'" style="swimlane;horizontal=0;whiteSpace=wrap;html=1;fontSize=30;" parent="1" vertex="1">
                    <mxGeometry x="1800" y="410" width="400" height="320" as="geometry"/>
                </mxCell>
                <mxCell id="515" value="A" style="swimlane;horizontal=0;whiteSpace=wrap;html=1;fontSize=30;" parent="1" vertex="1">
                    <mxGeometry x="2280" y="420" width="400" height="230" as="geometry"/>
                </mxCell>
                <mxCell id="516" value="B" style="swimlane;horizontal=0;whiteSpace=wrap;html=1;fontSize=30;" parent="1" vertex="1">
                    <mxGeometry x="2280" y="650" width="400" height="230" as="geometry"/>
                </mxCell>
                <mxCell id="517" value="...4" style="text;html=1;strokeColor=none;fillColor=none;align=center;verticalAlign=middle;whiteSpace=wrap;rounded=0;fontSize=30;" parent="1" vertex="1">
                    <mxGeometry x="1980" y="760" width="60" height="30" as="geometry"/>
                </mxCell>
                <mxCell id="518" value="...4" style="text;html=1;strokeColor=none;fillColor=none;align=center;verticalAlign=middle;whiteSpace=wrap;rounded=0;fontSize=30;" parent="1" vertex="1">
                    <mxGeometry x="2460" y="910" width="60" height="30" as="geometry"/>
                </mxCell>
                <mxCell id="519" value="...4" style="text;html=1;strokeColor=none;fillColor=none;align=center;verticalAlign=middle;whiteSpace=wrap;rounded=0;fontSize=30;" parent="1" vertex="1">
                    <mxGeometry x="2810" y="490" width="60" height="30" as="geometry"/>
                </mxCell>
                <mxCell id="520" value="" style="whiteSpace=wrap;html=1;aspect=fixed;fontSize=30;" parent="1" vertex="1">
                    <mxGeometry x="1020" y="1210" width="490" height="490" as="geometry"/>
                </mxCell>
                <mxCell id="525" value="Identity" style="text;html=1;strokeColor=none;fillColor=none;align=center;verticalAlign=middle;whiteSpace=wrap;rounded=0;fontSize=30;" parent="1" vertex="1">
                    <mxGeometry x="890" y="1440" width="120" height="30" as="geometry"/>
                </mxCell>
                <mxCell id="527" value="one big loop" style="text;html=1;strokeColor=none;fillColor=none;align=center;verticalAlign=middle;whiteSpace=wrap;rounded=0;fontSize=30;" parent="1" vertex="1">
                    <mxGeometry x="1510" y="1460" width="190" height="30" as="geometry"/>
                </mxCell>
                <mxCell id="532" style="edgeStyle=none;html=1;exitX=0.75;exitY=1;exitDx=0;exitDy=0;fontSize=30;" parent="1" source="530" target="520" edge="1">
                    <mxGeometry relative="1" as="geometry"/>
                </mxCell>
                <mxCell id="530" value="symetry" style="text;html=1;strokeColor=none;fillColor=none;align=center;verticalAlign=middle;whiteSpace=wrap;rounded=0;fontSize=30;" parent="1" vertex="1">
                    <mxGeometry x="1130" y="1170" width="165" height="30" as="geometry"/>
                </mxCell>
                <mxCell id="531" value="non" style="text;html=1;strokeColor=none;fillColor=none;align=center;verticalAlign=middle;whiteSpace=wrap;rounded=0;fontSize=30;" parent="1" vertex="1">
                    <mxGeometry x="1182.5" y="1710" width="165" height="30" as="geometry"/>
                </mxCell>
                <mxCell id="533" value="identity 1&lt;br&gt;interim loops- big&lt;br&gt;max loops - small" style="text;html=1;strokeColor=none;fillColor=none;align=center;verticalAlign=middle;whiteSpace=wrap;rounded=0;fontSize=30;" parent="1" vertex="1">
                    <mxGeometry x="40" y="400" width="200" height="320" as="geometry"/>
                </mxCell>
                <mxCell id="534" value="" style="endArrow=none;html=1;fontSize=30;exitX=0;exitY=0.5;exitDx=0;exitDy=0;entryX=0.5;entryY=0;entryDx=0;entryDy=0;" parent="1" source="520" target="520" edge="1">
                    <mxGeometry width="50" height="50" relative="1" as="geometry">
                        <mxPoint x="930" y="1420" as="sourcePoint"/>
                        <mxPoint x="980" y="1370" as="targetPoint"/>
                    </mxGeometry>
                </mxCell>
                <mxCell id="535" value="" style="endArrow=none;html=1;fontSize=30;entryX=0.5;entryY=1;entryDx=0;entryDy=0;" parent="1" target="520" edge="1">
                    <mxGeometry width="50" height="50" relative="1" as="geometry">
                        <mxPoint x="1020" y="1455" as="sourcePoint"/>
                        <mxPoint x="1520" y="1220" as="targetPoint"/>
                    </mxGeometry>
                </mxCell>
                <mxCell id="536" value="" style="endArrow=none;html=1;fontSize=30;" parent="1" edge="1">
                    <mxGeometry width="50" height="50" relative="1" as="geometry">
                        <mxPoint x="1510" y="1210" as="sourcePoint"/>
                        <mxPoint x="1560" y="1210" as="targetPoint"/>
                    </mxGeometry>
                </mxCell>
                <mxCell id="537" value="" style="endArrow=none;html=1;fontSize=30;" parent="1" edge="1">
                    <mxGeometry width="50" height="50" relative="1" as="geometry">
                        <mxPoint x="1510" y="1250" as="sourcePoint"/>
                        <mxPoint x="1560" y="1250" as="targetPoint"/>
                    </mxGeometry>
                </mxCell>
                <mxCell id="538" value="" style="endArrow=none;html=1;fontSize=30;" parent="1" edge="1">
                    <mxGeometry width="50" height="50" relative="1" as="geometry">
                        <mxPoint x="1510" y="1219.5" as="sourcePoint"/>
                        <mxPoint x="1560" y="1219.5" as="targetPoint"/>
                    </mxGeometry>
                </mxCell>
                <mxCell id="539" value="" style="endArrow=none;html=1;fontSize=30;" parent="1" edge="1">
                    <mxGeometry width="50" height="50" relative="1" as="geometry">
                        <mxPoint x="1510" y="1230" as="sourcePoint"/>
                        <mxPoint x="1560" y="1230" as="targetPoint"/>
                    </mxGeometry>
                </mxCell>
                <mxCell id="540" value="" style="endArrow=none;html=1;fontSize=30;" parent="1" edge="1">
                    <mxGeometry width="50" height="50" relative="1" as="geometry">
                        <mxPoint x="1510" y="1269.5" as="sourcePoint"/>
                        <mxPoint x="1560" y="1269.5" as="targetPoint"/>
                    </mxGeometry>
                </mxCell>
                <mxCell id="541" value="" style="endArrow=none;html=1;fontSize=30;" parent="1" edge="1">
                    <mxGeometry width="50" height="50" relative="1" as="geometry">
                        <mxPoint x="1510" y="1300" as="sourcePoint"/>
                        <mxPoint x="1560" y="1300" as="targetPoint"/>
                    </mxGeometry>
                </mxCell>
                <mxCell id="542" value="" style="endArrow=none;html=1;fontSize=30;exitX=1;exitY=0.25;exitDx=0;exitDy=0;" parent="1" source="520" edge="1">
                    <mxGeometry width="50" height="50" relative="1" as="geometry">
                        <mxPoint x="1030" y="1465" as="sourcePoint"/>
                        <mxPoint x="1265" y="1210" as="targetPoint"/>
                    </mxGeometry>
                </mxCell>
                <mxCell id="543" value="" style="endArrow=none;html=1;fontSize=30;entryX=1;entryY=0.75;entryDx=0;entryDy=0;exitX=0.5;exitY=1;exitDx=0;exitDy=0;" parent="1" source="520" target="520" edge="1">
                    <mxGeometry width="50" height="50" relative="1" as="geometry">
                        <mxPoint x="1030" y="1465" as="sourcePoint"/>
                        <mxPoint x="1520" y="1710" as="targetPoint"/>
                    </mxGeometry>
                </mxCell>
                <mxCell id="544" value="&lt;font style=&quot;font-size: 30px;&quot;&gt;A&lt;/font&gt;" style="ellipse;whiteSpace=wrap;html=1;aspect=fixed;fontSize=30;" parent="1" vertex="1">
                    <mxGeometry x="40" y="2240" width="80" height="80" as="geometry"/>
                </mxCell>
                <mxCell id="546" value="&lt;font style=&quot;font-size: 30px;&quot;&gt;B&lt;/font&gt;" style="ellipse;whiteSpace=wrap;html=1;aspect=fixed;fontSize=30;" parent="1" vertex="1">
                    <mxGeometry x="160" y="2240" width="80" height="80" as="geometry"/>
                </mxCell>
                <mxCell id="551" value="&lt;span style=&quot;font-size: 24px;&quot;&gt;2 space&lt;/span&gt;" style="text;html=1;strokeColor=none;fillColor=none;align=left;verticalAlign=middle;whiteSpace=wrap;rounded=0;" parent="1" vertex="1">
                    <mxGeometry x="40" y="2200" width="200" height="40" as="geometry"/>
                </mxCell>
                <mxCell id="555" style="edgeStyle=none;html=1;fontSize=30;" parent="1" source="552" target="553" edge="1">
                    <mxGeometry relative="1" as="geometry"/>
                </mxCell>
                <mxCell id="552" value="&lt;font style=&quot;font-size: 30px;&quot;&gt;A&lt;/font&gt;" style="ellipse;whiteSpace=wrap;html=1;aspect=fixed;fontSize=30;" parent="1" vertex="1">
                    <mxGeometry x="40" y="2480" width="80" height="80" as="geometry"/>
                </mxCell>
                <mxCell id="556" style="edgeStyle=none;html=1;fontSize=30;" parent="1" source="553" target="552" edge="1">
                    <mxGeometry relative="1" as="geometry"/>
                </mxCell>
                <mxCell id="553" value="&lt;font style=&quot;font-size: 30px;&quot;&gt;B&lt;/font&gt;" style="ellipse;whiteSpace=wrap;html=1;aspect=fixed;fontSize=30;" parent="1" vertex="1">
                    <mxGeometry x="160" y="2480" width="80" height="80" as="geometry"/>
                </mxCell>
                <mxCell id="557" style="edgeStyle=none;html=1;fontSize=30;" parent="1" source="558" target="560" edge="1">
                    <mxGeometry relative="1" as="geometry"/>
                </mxCell>
                <mxCell id="558" value="&lt;font style=&quot;font-size: 30px;&quot;&gt;A&lt;/font&gt;" style="ellipse;whiteSpace=wrap;html=1;aspect=fixed;fontSize=30;" parent="1" vertex="1">
                    <mxGeometry x="40" y="2360" width="80" height="80" as="geometry"/>
                </mxCell>
                <mxCell id="560" value="&lt;font style=&quot;font-size: 30px;&quot;&gt;B&lt;/font&gt;" style="ellipse;whiteSpace=wrap;html=1;aspect=fixed;fontSize=30;" parent="1" vertex="1">
                    <mxGeometry x="160" y="2360" width="80" height="80" as="geometry"/>
                </mxCell>
                <mxCell id="566" value="&lt;font style=&quot;font-size: 30px;&quot;&gt;A&lt;/font&gt;" style="ellipse;whiteSpace=wrap;html=1;aspect=fixed;fontSize=30;" parent="1" vertex="1">
                    <mxGeometry x="280" y="2360" width="80" height="80" as="geometry"/>
                </mxCell>
                <mxCell id="568" style="edgeStyle=none;html=1;fontSize=30;" parent="1" source="567" target="566" edge="1">
                    <mxGeometry relative="1" as="geometry"/>
                </mxCell>
                <mxCell id="567" value="&lt;font style=&quot;font-size: 30px;&quot;&gt;B&lt;/font&gt;" style="ellipse;whiteSpace=wrap;html=1;aspect=fixed;fontSize=30;" parent="1" vertex="1">
                    <mxGeometry x="400" y="2360" width="80" height="80" as="geometry"/>
                </mxCell>
                <mxCell id="582" value="&lt;font style=&quot;font-size: 30px;&quot;&gt;A&lt;/font&gt;" style="ellipse;whiteSpace=wrap;html=1;aspect=fixed;fontSize=30;" parent="1" vertex="1">
                    <mxGeometry x="40" y="2880" width="80" height="80" as="geometry"/>
                </mxCell>
                <mxCell id="583" value="&lt;font style=&quot;font-size: 30px;&quot;&gt;B&lt;/font&gt;" style="ellipse;whiteSpace=wrap;html=1;aspect=fixed;fontSize=30;" parent="1" vertex="1">
                    <mxGeometry x="160" y="2880" width="80" height="80" as="geometry"/>
                </mxCell>
                <mxCell id="584" value="&lt;span style=&quot;font-size: 24px;&quot;&gt;3 space&lt;br&gt;&lt;br&gt;1 observation = 8&lt;br&gt;2 observations = 3&lt;br&gt;3 observations = 1&lt;br&gt;&lt;/span&gt;" style="text;html=1;strokeColor=none;fillColor=none;align=left;verticalAlign=middle;whiteSpace=wrap;rounded=0;" parent="1" vertex="1">
                    <mxGeometry x="40" y="2630" width="540" height="170" as="geometry"/>
                </mxCell>
                <mxCell id="596" value="&lt;font style=&quot;font-size: 30px;&quot;&gt;C&lt;/font&gt;" style="ellipse;whiteSpace=wrap;html=1;aspect=fixed;fontSize=30;" parent="1" vertex="1">
                    <mxGeometry x="100" y="3000" width="80" height="80" as="geometry"/>
                </mxCell>
                <mxCell id="612" style="edgeStyle=none;html=1;fontSize=30;" parent="1" source="597" target="598" edge="1">
                    <mxGeometry relative="1" as="geometry"/>
                </mxCell>
                <mxCell id="597" value="&lt;font style=&quot;font-size: 30px;&quot;&gt;A&lt;/font&gt;" style="ellipse;whiteSpace=wrap;html=1;aspect=fixed;fontSize=30;" parent="1" vertex="1">
                    <mxGeometry x="40" y="3440" width="80" height="80" as="geometry"/>
                </mxCell>
                <mxCell id="598" value="&lt;font style=&quot;font-size: 30px;&quot;&gt;B&lt;/font&gt;" style="ellipse;whiteSpace=wrap;html=1;aspect=fixed;fontSize=30;" parent="1" vertex="1">
                    <mxGeometry x="160" y="3440" width="80" height="80" as="geometry"/>
                </mxCell>
                <mxCell id="599" value="&lt;font style=&quot;font-size: 30px;&quot;&gt;C&lt;/font&gt;" style="ellipse;whiteSpace=wrap;html=1;aspect=fixed;fontSize=30;" parent="1" vertex="1">
                    <mxGeometry x="100" y="3560" width="80" height="80" as="geometry"/>
                </mxCell>
                <mxCell id="603" style="edgeStyle=none;html=1;fontSize=30;" parent="1" source="600" target="601" edge="1">
                    <mxGeometry relative="1" as="geometry"/>
                </mxCell>
                <mxCell id="600" value="&lt;font style=&quot;font-size: 30px;&quot;&gt;A&lt;/font&gt;" style="ellipse;whiteSpace=wrap;html=1;aspect=fixed;fontSize=30;" parent="1" vertex="1">
                    <mxGeometry x="40" y="4280" width="80" height="80" as="geometry"/>
                </mxCell>
                <mxCell id="604" style="edgeStyle=none;html=1;fontSize=30;" parent="1" source="601" target="602" edge="1">
                    <mxGeometry relative="1" as="geometry"/>
                </mxCell>
                <mxCell id="601" value="&lt;font style=&quot;font-size: 30px;&quot;&gt;B&lt;/font&gt;" style="ellipse;whiteSpace=wrap;html=1;aspect=fixed;fontSize=30;" parent="1" vertex="1">
                    <mxGeometry x="160" y="4280" width="80" height="80" as="geometry"/>
                </mxCell>
                <mxCell id="605" style="edgeStyle=none;html=1;fontSize=30;" parent="1" source="602" target="600" edge="1">
                    <mxGeometry relative="1" as="geometry"/>
                </mxCell>
                <mxCell id="602" value="&lt;font style=&quot;font-size: 30px;&quot;&gt;C&lt;/font&gt;" style="ellipse;whiteSpace=wrap;html=1;aspect=fixed;fontSize=30;" parent="1" vertex="1">
                    <mxGeometry x="100" y="4400" width="80" height="80" as="geometry"/>
                </mxCell>
                <mxCell id="610" style="edgeStyle=none;html=1;fontSize=30;" parent="1" source="606" target="608" edge="1">
                    <mxGeometry relative="1" as="geometry"/>
                </mxCell>
                <mxCell id="606" value="&lt;font style=&quot;font-size: 30px;&quot;&gt;A&lt;/font&gt;" style="ellipse;whiteSpace=wrap;html=1;aspect=fixed;fontSize=30;" parent="1" vertex="1">
                    <mxGeometry x="280" y="4280" width="80" height="80" as="geometry"/>
                </mxCell>
                <mxCell id="609" style="edgeStyle=none;html=1;fontSize=30;" parent="1" source="607" target="606" edge="1">
                    <mxGeometry relative="1" as="geometry"/>
                </mxCell>
                <mxCell id="607" value="&lt;font style=&quot;font-size: 30px;&quot;&gt;B&lt;/font&gt;" style="ellipse;whiteSpace=wrap;html=1;aspect=fixed;fontSize=30;" parent="1" vertex="1">
                    <mxGeometry x="400" y="4280" width="80" height="80" as="geometry"/>
                </mxCell>
                <mxCell id="611" style="edgeStyle=none;html=1;fontSize=30;" parent="1" source="608" target="607" edge="1">
                    <mxGeometry relative="1" as="geometry"/>
                </mxCell>
                <mxCell id="608" value="&lt;font style=&quot;font-size: 30px;&quot;&gt;C&lt;/font&gt;" style="ellipse;whiteSpace=wrap;html=1;aspect=fixed;fontSize=30;" parent="1" vertex="1">
                    <mxGeometry x="340" y="4400" width="80" height="80" as="geometry"/>
                </mxCell>
                <mxCell id="617" style="edgeStyle=none;html=1;fontSize=30;" parent="1" source="614" target="616" edge="1">
                    <mxGeometry relative="1" as="geometry"/>
                </mxCell>
                <mxCell id="614" value="&lt;font style=&quot;font-size: 30px;&quot;&gt;A&lt;/font&gt;" style="ellipse;whiteSpace=wrap;html=1;aspect=fixed;fontSize=30;" parent="1" vertex="1">
                    <mxGeometry x="280" y="3440" width="80" height="80" as="geometry"/>
                </mxCell>
                <mxCell id="615" value="&lt;font style=&quot;font-size: 30px;&quot;&gt;B&lt;/font&gt;" style="ellipse;whiteSpace=wrap;html=1;aspect=fixed;fontSize=30;" parent="1" vertex="1">
                    <mxGeometry x="400" y="3440" width="80" height="80" as="geometry"/>
                </mxCell>
                <mxCell id="616" value="&lt;font style=&quot;font-size: 30px;&quot;&gt;C&lt;/font&gt;" style="ellipse;whiteSpace=wrap;html=1;aspect=fixed;fontSize=30;" parent="1" vertex="1">
                    <mxGeometry x="340" y="3560" width="80" height="80" as="geometry"/>
                </mxCell>
                <mxCell id="618" value="&lt;font style=&quot;font-size: 30px;&quot;&gt;A&lt;/font&gt;" style="ellipse;whiteSpace=wrap;html=1;aspect=fixed;fontSize=30;" parent="1" vertex="1">
                    <mxGeometry x="520" y="3440" width="80" height="80" as="geometry"/>
                </mxCell>
                <mxCell id="621" style="edgeStyle=none;html=1;fontSize=30;" parent="1" source="619" target="618" edge="1">
                    <mxGeometry relative="1" as="geometry"/>
                </mxCell>
                <mxCell id="619" value="&lt;font style=&quot;font-size: 30px;&quot;&gt;B&lt;/font&gt;" style="ellipse;whiteSpace=wrap;html=1;aspect=fixed;fontSize=30;" parent="1" vertex="1">
                    <mxGeometry x="640" y="3440" width="80" height="80" as="geometry"/>
                </mxCell>
                <mxCell id="620" value="&lt;font style=&quot;font-size: 30px;&quot;&gt;C&lt;/font&gt;" style="ellipse;whiteSpace=wrap;html=1;aspect=fixed;fontSize=30;" parent="1" vertex="1">
                    <mxGeometry x="580" y="3560" width="80" height="80" as="geometry"/>
                </mxCell>
                <mxCell id="622" value="&lt;font style=&quot;font-size: 30px;&quot;&gt;A&lt;/font&gt;" style="ellipse;whiteSpace=wrap;html=1;aspect=fixed;fontSize=30;" parent="1" vertex="1">
                    <mxGeometry x="760" y="3440" width="80" height="80" as="geometry"/>
                </mxCell>
                <mxCell id="625" style="edgeStyle=none;html=1;fontSize=30;" parent="1" source="623" target="624" edge="1">
                    <mxGeometry relative="1" as="geometry"/>
                </mxCell>
                <mxCell id="623" value="&lt;font style=&quot;font-size: 30px;&quot;&gt;B&lt;/font&gt;" style="ellipse;whiteSpace=wrap;html=1;aspect=fixed;fontSize=30;" parent="1" vertex="1">
                    <mxGeometry x="880" y="3440" width="80" height="80" as="geometry"/>
                </mxCell>
                <mxCell id="624" value="&lt;font style=&quot;font-size: 30px;&quot;&gt;C&lt;/font&gt;" style="ellipse;whiteSpace=wrap;html=1;aspect=fixed;fontSize=30;" parent="1" vertex="1">
                    <mxGeometry x="820" y="3560" width="80" height="80" as="geometry"/>
                </mxCell>
                <mxCell id="626" value="&lt;font style=&quot;font-size: 30px;&quot;&gt;A&lt;/font&gt;" style="ellipse;whiteSpace=wrap;html=1;aspect=fixed;fontSize=30;" parent="1" vertex="1">
                    <mxGeometry x="1000" y="3440" width="80" height="80" as="geometry"/>
                </mxCell>
                <mxCell id="627" value="&lt;font style=&quot;font-size: 30px;&quot;&gt;B&lt;/font&gt;" style="ellipse;whiteSpace=wrap;html=1;aspect=fixed;fontSize=30;" parent="1" vertex="1">
                    <mxGeometry x="1120" y="3440" width="80" height="80" as="geometry"/>
                </mxCell>
                <mxCell id="629" style="edgeStyle=none;html=1;fontSize=30;" parent="1" source="628" target="626" edge="1">
                    <mxGeometry relative="1" as="geometry"/>
                </mxCell>
                <mxCell id="628" value="&lt;font style=&quot;font-size: 30px;&quot;&gt;C&lt;/font&gt;" style="ellipse;whiteSpace=wrap;html=1;aspect=fixed;fontSize=30;" parent="1" vertex="1">
                    <mxGeometry x="1060" y="3560" width="80" height="80" as="geometry"/>
                </mxCell>
                <mxCell id="630" value="&lt;font style=&quot;font-size: 30px;&quot;&gt;A&lt;/font&gt;" style="ellipse;whiteSpace=wrap;html=1;aspect=fixed;fontSize=30;" parent="1" vertex="1">
                    <mxGeometry x="1240" y="3440" width="80" height="80" as="geometry"/>
                </mxCell>
                <mxCell id="631" value="&lt;font style=&quot;font-size: 30px;&quot;&gt;B&lt;/font&gt;" style="ellipse;whiteSpace=wrap;html=1;aspect=fixed;fontSize=30;" parent="1" vertex="1">
                    <mxGeometry x="1360" y="3440" width="80" height="80" as="geometry"/>
                </mxCell>
                <mxCell id="633" style="edgeStyle=none;html=1;fontSize=30;" parent="1" source="632" target="631" edge="1">
                    <mxGeometry relative="1" as="geometry"/>
                </mxCell>
                <mxCell id="632" value="&lt;font style=&quot;font-size: 30px;&quot;&gt;C&lt;/font&gt;" style="ellipse;whiteSpace=wrap;html=1;aspect=fixed;fontSize=30;" parent="1" vertex="1">
                    <mxGeometry x="1300" y="3560" width="80" height="80" as="geometry"/>
                </mxCell>
                <mxCell id="641" style="edgeStyle=none;html=1;fontSize=30;" parent="1" source="638" target="639" edge="1">
                    <mxGeometry relative="1" as="geometry"/>
                </mxCell>
                <mxCell id="638" value="&lt;font style=&quot;font-size: 30px;&quot;&gt;A&lt;/font&gt;" style="ellipse;whiteSpace=wrap;html=1;aspect=fixed;fontSize=30;" parent="1" vertex="1">
                    <mxGeometry x="40" y="3720" width="80" height="80" as="geometry"/>
                </mxCell>
                <mxCell id="642" style="edgeStyle=none;html=1;fontSize=30;" parent="1" source="639" target="640" edge="1">
                    <mxGeometry relative="1" as="geometry"/>
                </mxCell>
                <mxCell id="639" value="&lt;font style=&quot;font-size: 30px;&quot;&gt;B&lt;/font&gt;" style="ellipse;whiteSpace=wrap;html=1;aspect=fixed;fontSize=30;" parent="1" vertex="1">
                    <mxGeometry x="160" y="3720" width="80" height="80" as="geometry"/>
                </mxCell>
                <mxCell id="640" value="&lt;font style=&quot;font-size: 30px;&quot;&gt;C&lt;/font&gt;" style="ellipse;whiteSpace=wrap;html=1;aspect=fixed;fontSize=30;" parent="1" vertex="1">
                    <mxGeometry x="100" y="3840" width="80" height="80" as="geometry"/>
                </mxCell>
                <mxCell id="647" style="edgeStyle=none;html=1;fontSize=30;" parent="1" source="643" target="645" edge="1">
                    <mxGeometry relative="1" as="geometry"/>
                </mxCell>
                <mxCell id="643" value="&lt;font style=&quot;font-size: 30px;&quot;&gt;A&lt;/font&gt;" style="ellipse;whiteSpace=wrap;html=1;aspect=fixed;fontSize=30;" parent="1" vertex="1">
                    <mxGeometry x="280" y="3720" width="80" height="80" as="geometry"/>
                </mxCell>
                <mxCell id="644" value="&lt;font style=&quot;font-size: 30px;&quot;&gt;B&lt;/font&gt;" style="ellipse;whiteSpace=wrap;html=1;aspect=fixed;fontSize=30;" parent="1" vertex="1">
                    <mxGeometry x="400" y="3720" width="80" height="80" as="geometry"/>
                </mxCell>
                <mxCell id="648" style="edgeStyle=none;html=1;fontSize=30;" parent="1" source="645" target="644" edge="1">
                    <mxGeometry relative="1" as="geometry"/>
                </mxCell>
                <mxCell id="645" value="&lt;font style=&quot;font-size: 30px;&quot;&gt;C&lt;/font&gt;" style="ellipse;whiteSpace=wrap;html=1;aspect=fixed;fontSize=30;" parent="1" vertex="1">
                    <mxGeometry x="340" y="3840" width="80" height="80" as="geometry"/>
                </mxCell>
                <mxCell id="653" style="edgeStyle=none;html=1;fontSize=30;" parent="1" source="649" target="651" edge="1">
                    <mxGeometry relative="1" as="geometry"/>
                </mxCell>
                <mxCell id="649" value="&lt;font style=&quot;font-size: 30px;&quot;&gt;A&lt;/font&gt;" style="ellipse;whiteSpace=wrap;html=1;aspect=fixed;fontSize=30;" parent="1" vertex="1">
                    <mxGeometry x="520" y="3720" width="80" height="80" as="geometry"/>
                </mxCell>
                <mxCell id="652" style="edgeStyle=none;html=1;fontSize=30;" parent="1" source="650" target="649" edge="1">
                    <mxGeometry relative="1" as="geometry"/>
                </mxCell>
                <mxCell id="650" value="&lt;font style=&quot;font-size: 30px;&quot;&gt;B&lt;/font&gt;" style="ellipse;whiteSpace=wrap;html=1;aspect=fixed;fontSize=30;" parent="1" vertex="1">
                    <mxGeometry x="640" y="3720" width="80" height="80" as="geometry"/>
                </mxCell>
                <mxCell id="651" value="&lt;font style=&quot;font-size: 30px;&quot;&gt;C&lt;/font&gt;" style="ellipse;whiteSpace=wrap;html=1;aspect=fixed;fontSize=30;" parent="1" vertex="1">
                    <mxGeometry x="580" y="3840" width="80" height="80" as="geometry"/>
                </mxCell>
                <mxCell id="654" value="&lt;font style=&quot;font-size: 30px;&quot;&gt;A&lt;/font&gt;" style="ellipse;whiteSpace=wrap;html=1;aspect=fixed;fontSize=30;" parent="1" vertex="1">
                    <mxGeometry x="760" y="3720" width="80" height="80" as="geometry"/>
                </mxCell>
                <mxCell id="657" style="edgeStyle=none;html=1;fontSize=30;" parent="1" source="655" target="656" edge="1">
                    <mxGeometry relative="1" as="geometry"/>
                </mxCell>
                <mxCell id="655" value="&lt;font style=&quot;font-size: 30px;&quot;&gt;B&lt;/font&gt;" style="ellipse;whiteSpace=wrap;html=1;aspect=fixed;fontSize=30;" parent="1" vertex="1">
                    <mxGeometry x="880" y="3720" width="80" height="80" as="geometry"/>
                </mxCell>
                <mxCell id="658" style="edgeStyle=none;html=1;fontSize=30;" parent="1" source="656" target="654" edge="1">
                    <mxGeometry relative="1" as="geometry"/>
                </mxCell>
                <mxCell id="656" value="&lt;font style=&quot;font-size: 30px;&quot;&gt;C&lt;/font&gt;" style="ellipse;whiteSpace=wrap;html=1;aspect=fixed;fontSize=30;" parent="1" vertex="1">
                    <mxGeometry x="820" y="3840" width="80" height="80" as="geometry"/>
                </mxCell>
                <mxCell id="663" style="edgeStyle=none;html=1;fontSize=30;" parent="1" source="659" target="660" edge="1">
                    <mxGeometry relative="1" as="geometry"/>
                </mxCell>
                <mxCell id="659" value="&lt;font style=&quot;font-size: 30px;&quot;&gt;A&lt;/font&gt;" style="ellipse;whiteSpace=wrap;html=1;aspect=fixed;fontSize=30;" parent="1" vertex="1">
                    <mxGeometry x="1000" y="3720" width="80" height="80" as="geometry"/>
                </mxCell>
                <mxCell id="660" value="&lt;font style=&quot;font-size: 30px;&quot;&gt;B&lt;/font&gt;" style="ellipse;whiteSpace=wrap;html=1;aspect=fixed;fontSize=30;" parent="1" vertex="1">
                    <mxGeometry x="1120" y="3720" width="80" height="80" as="geometry"/>
                </mxCell>
                <mxCell id="662" style="edgeStyle=none;html=1;fontSize=30;" parent="1" source="661" target="659" edge="1">
                    <mxGeometry relative="1" as="geometry"/>
                </mxCell>
                <mxCell id="661" value="&lt;font style=&quot;font-size: 30px;&quot;&gt;C&lt;/font&gt;" style="ellipse;whiteSpace=wrap;html=1;aspect=fixed;fontSize=30;" parent="1" vertex="1">
                    <mxGeometry x="1060" y="3840" width="80" height="80" as="geometry"/>
                </mxCell>
                <mxCell id="664" value="&lt;font style=&quot;font-size: 30px;&quot;&gt;A&lt;/font&gt;" style="ellipse;whiteSpace=wrap;html=1;aspect=fixed;fontSize=30;" parent="1" vertex="1">
                    <mxGeometry x="1240" y="3720" width="80" height="80" as="geometry"/>
                </mxCell>
                <mxCell id="668" style="edgeStyle=none;html=1;fontSize=30;" parent="1" source="665" target="664" edge="1">
                    <mxGeometry relative="1" as="geometry"/>
                </mxCell>
                <mxCell id="665" value="&lt;font style=&quot;font-size: 30px;&quot;&gt;B&lt;/font&gt;" style="ellipse;whiteSpace=wrap;html=1;aspect=fixed;fontSize=30;" parent="1" vertex="1">
                    <mxGeometry x="1360" y="3720" width="80" height="80" as="geometry"/>
                </mxCell>
                <mxCell id="667" style="edgeStyle=none;html=1;fontSize=30;" parent="1" source="666" target="665" edge="1">
                    <mxGeometry relative="1" as="geometry"/>
                </mxCell>
                <mxCell id="666" value="&lt;font style=&quot;font-size: 30px;&quot;&gt;C&lt;/font&gt;" style="ellipse;whiteSpace=wrap;html=1;aspect=fixed;fontSize=30;" parent="1" vertex="1">
                    <mxGeometry x="1300" y="3840" width="80" height="80" as="geometry"/>
                </mxCell>
                <mxCell id="708" style="edgeStyle=none;html=1;fontSize=30;" parent="1" source="693" target="694" edge="1">
                    <mxGeometry relative="1" as="geometry"/>
                </mxCell>
                <mxCell id="693" value="&lt;font style=&quot;font-size: 30px;&quot;&gt;A&lt;/font&gt;" style="ellipse;whiteSpace=wrap;html=1;aspect=fixed;fontSize=30;" parent="1" vertex="1">
                    <mxGeometry x="40" y="4000" width="80" height="80" as="geometry"/>
                </mxCell>
                <mxCell id="709" style="edgeStyle=none;html=1;fontSize=30;" parent="1" source="694" target="693" edge="1">
                    <mxGeometry relative="1" as="geometry"/>
                </mxCell>
                <mxCell id="694" value="&lt;font style=&quot;font-size: 30px;&quot;&gt;B&lt;/font&gt;" style="ellipse;whiteSpace=wrap;html=1;aspect=fixed;fontSize=30;" parent="1" vertex="1">
                    <mxGeometry x="160" y="4000" width="80" height="80" as="geometry"/>
                </mxCell>
                <mxCell id="710" style="edgeStyle=none;html=1;fontSize=30;" parent="1" source="695" target="693" edge="1">
                    <mxGeometry relative="1" as="geometry"/>
                </mxCell>
                <mxCell id="695" value="&lt;font style=&quot;font-size: 30px;&quot;&gt;C&lt;/font&gt;" style="ellipse;whiteSpace=wrap;html=1;aspect=fixed;fontSize=30;" parent="1" vertex="1">
                    <mxGeometry x="100" y="4120" width="80" height="80" as="geometry"/>
                </mxCell>
                <mxCell id="720" style="edgeStyle=none;html=1;fontSize=30;" parent="1" source="711" target="712" edge="1">
                    <mxGeometry relative="1" as="geometry"/>
                </mxCell>
                <mxCell id="711" value="&lt;font style=&quot;font-size: 30px;&quot;&gt;A&lt;/font&gt;" style="ellipse;whiteSpace=wrap;html=1;aspect=fixed;fontSize=30;" parent="1" vertex="1">
                    <mxGeometry x="280" y="4000" width="80" height="80" as="geometry"/>
                </mxCell>
                <mxCell id="721" style="edgeStyle=none;html=1;fontSize=30;" parent="1" source="712" target="711" edge="1">
                    <mxGeometry relative="1" as="geometry"/>
                </mxCell>
                <mxCell id="712" value="&lt;font style=&quot;font-size: 30px;&quot;&gt;B&lt;/font&gt;" style="ellipse;whiteSpace=wrap;html=1;aspect=fixed;fontSize=30;" parent="1" vertex="1">
                    <mxGeometry x="400" y="4000" width="80" height="80" as="geometry"/>
                </mxCell>
                <mxCell id="722" style="edgeStyle=none;html=1;fontSize=30;" parent="1" source="713" target="712" edge="1">
                    <mxGeometry relative="1" as="geometry"/>
                </mxCell>
                <mxCell id="713" value="&lt;font style=&quot;font-size: 30px;&quot;&gt;C&lt;/font&gt;" style="ellipse;whiteSpace=wrap;html=1;aspect=fixed;fontSize=30;" parent="1" vertex="1">
                    <mxGeometry x="340" y="4120" width="80" height="80" as="geometry"/>
                </mxCell>
                <mxCell id="747" style="edgeStyle=none;html=1;fontSize=30;" parent="1" source="729" target="731" edge="1">
                    <mxGeometry relative="1" as="geometry"/>
                </mxCell>
                <mxCell id="729" value="&lt;font style=&quot;font-size: 30px;&quot;&gt;A&lt;/font&gt;" style="ellipse;whiteSpace=wrap;html=1;aspect=fixed;fontSize=30;" parent="1" vertex="1">
                    <mxGeometry x="520" y="4000" width="80" height="80" as="geometry"/>
                </mxCell>
                <mxCell id="749" style="edgeStyle=none;html=1;fontSize=30;" parent="1" source="730" target="729" edge="1">
                    <mxGeometry relative="1" as="geometry"/>
                </mxCell>
                <mxCell id="730" value="&lt;font style=&quot;font-size: 30px;&quot;&gt;B&lt;/font&gt;" style="ellipse;whiteSpace=wrap;html=1;aspect=fixed;fontSize=30;" parent="1" vertex="1">
                    <mxGeometry x="640" y="4000" width="80" height="80" as="geometry"/>
                </mxCell>
                <mxCell id="748" style="edgeStyle=none;html=1;fontSize=30;" parent="1" source="731" target="729" edge="1">
                    <mxGeometry relative="1" as="geometry"/>
                </mxCell>
                <mxCell id="731" value="&lt;font style=&quot;font-size: 30px;&quot;&gt;C&lt;/font&gt;" style="ellipse;whiteSpace=wrap;html=1;aspect=fixed;fontSize=30;" parent="1" vertex="1">
                    <mxGeometry x="580" y="4120" width="80" height="80" as="geometry"/>
                </mxCell>
                <mxCell id="750" style="edgeStyle=none;html=1;fontSize=30;" parent="1" source="732" target="734" edge="1">
                    <mxGeometry relative="1" as="geometry"/>
                </mxCell>
                <mxCell id="732" value="&lt;font style=&quot;font-size: 30px;&quot;&gt;A&lt;/font&gt;" style="ellipse;whiteSpace=wrap;html=1;aspect=fixed;fontSize=30;" parent="1" vertex="1">
                    <mxGeometry x="760" y="4000" width="80" height="80" as="geometry"/>
                </mxCell>
                <mxCell id="752" style="edgeStyle=none;html=1;fontSize=30;" parent="1" source="733" target="734" edge="1">
                    <mxGeometry relative="1" as="geometry"/>
                </mxCell>
                <mxCell id="733" value="&lt;font style=&quot;font-size: 30px;&quot;&gt;B&lt;/font&gt;" style="ellipse;whiteSpace=wrap;html=1;aspect=fixed;fontSize=30;" parent="1" vertex="1">
                    <mxGeometry x="880" y="4000" width="80" height="80" as="geometry"/>
                </mxCell>
                <mxCell id="751" style="edgeStyle=none;html=1;fontSize=30;" parent="1" source="734" target="732" edge="1">
                    <mxGeometry relative="1" as="geometry"/>
                </mxCell>
                <mxCell id="734" value="&lt;font style=&quot;font-size: 30px;&quot;&gt;C&lt;/font&gt;" style="ellipse;whiteSpace=wrap;html=1;aspect=fixed;fontSize=30;" parent="1" vertex="1">
                    <mxGeometry x="820" y="4120" width="80" height="80" as="geometry"/>
                </mxCell>
                <mxCell id="763" style="edgeStyle=none;html=1;fontSize=30;" parent="1" source="741" target="742" edge="1">
                    <mxGeometry relative="1" as="geometry"/>
                </mxCell>
                <mxCell id="741" value="&lt;font style=&quot;font-size: 30px;&quot;&gt;A&lt;/font&gt;" style="ellipse;whiteSpace=wrap;html=1;aspect=fixed;fontSize=30;" parent="1" vertex="1">
                    <mxGeometry x="1000" y="4000" width="80" height="80" as="geometry"/>
                </mxCell>
                <mxCell id="761" style="edgeStyle=none;html=1;fontSize=30;" parent="1" source="742" target="743" edge="1">
                    <mxGeometry relative="1" as="geometry"/>
                </mxCell>
                <mxCell id="742" value="&lt;font style=&quot;font-size: 30px;&quot;&gt;B&lt;/font&gt;" style="ellipse;whiteSpace=wrap;html=1;aspect=fixed;fontSize=30;" parent="1" vertex="1">
                    <mxGeometry x="1120" y="4000" width="80" height="80" as="geometry"/>
                </mxCell>
                <mxCell id="762" style="edgeStyle=none;html=1;fontSize=30;" parent="1" source="743" target="742" edge="1">
                    <mxGeometry relative="1" as="geometry"/>
                </mxCell>
                <mxCell id="743" value="&lt;font style=&quot;font-size: 30px;&quot;&gt;C&lt;/font&gt;" style="ellipse;whiteSpace=wrap;html=1;aspect=fixed;fontSize=30;" parent="1" vertex="1">
                    <mxGeometry x="1060" y="4120" width="80" height="80" as="geometry"/>
                </mxCell>
                <mxCell id="766" style="edgeStyle=none;html=1;fontSize=30;" parent="1" source="744" target="746" edge="1">
                    <mxGeometry relative="1" as="geometry"/>
                </mxCell>
                <mxCell id="744" value="&lt;font style=&quot;font-size: 30px;&quot;&gt;A&lt;/font&gt;" style="ellipse;whiteSpace=wrap;html=1;aspect=fixed;fontSize=30;" parent="1" vertex="1">
                    <mxGeometry x="1240" y="4000" width="80" height="80" as="geometry"/>
                </mxCell>
                <mxCell id="764" style="edgeStyle=none;html=1;fontSize=30;" parent="1" source="745" target="746" edge="1">
                    <mxGeometry relative="1" as="geometry"/>
                </mxCell>
                <mxCell id="745" value="&lt;font style=&quot;font-size: 30px;&quot;&gt;B&lt;/font&gt;" style="ellipse;whiteSpace=wrap;html=1;aspect=fixed;fontSize=30;" parent="1" vertex="1">
                    <mxGeometry x="1360" y="4000" width="80" height="80" as="geometry"/>
                </mxCell>
                <mxCell id="765" style="edgeStyle=none;html=1;fontSize=30;" parent="1" source="746" target="745" edge="1">
                    <mxGeometry relative="1" as="geometry"/>
                </mxCell>
                <mxCell id="746" value="&lt;font style=&quot;font-size: 30px;&quot;&gt;C&lt;/font&gt;" style="ellipse;whiteSpace=wrap;html=1;aspect=fixed;fontSize=30;" parent="1" vertex="1">
                    <mxGeometry x="1300" y="4120" width="80" height="80" as="geometry"/>
                </mxCell>
                <mxCell id="820" value="&lt;span style=&quot;font-size: 24px;&quot;&gt;identity - 3 loops [1,1,1]&lt;/span&gt;" style="text;html=1;strokeColor=none;fillColor=none;align=left;verticalAlign=middle;whiteSpace=wrap;rounded=0;" parent="1" vertex="1">
                    <mxGeometry x="40" y="2840" width="280" height="40" as="geometry"/>
                </mxCell>
                <mxCell id="821" value="&lt;span style=&quot;font-size: 24px;&quot;&gt;two loops [1,1]&lt;/span&gt;" style="text;html=1;strokeColor=none;fillColor=none;align=left;verticalAlign=middle;whiteSpace=wrap;rounded=0;" parent="1" vertex="1">
                    <mxGeometry x="40" y="3400" width="200" height="40" as="geometry"/>
                </mxCell>
                <mxCell id="822" value="&lt;span style=&quot;font-size: 24px;&quot;&gt;1 loop [1] long tails&lt;/span&gt;" style="text;html=1;strokeColor=none;fillColor=none;align=left;verticalAlign=middle;whiteSpace=wrap;rounded=0;" parent="1" vertex="1">
                    <mxGeometry x="40" y="3680" width="510" height="40" as="geometry"/>
                </mxCell>
                <mxCell id="824" value="&lt;span style=&quot;font-size: 24px;&quot;&gt;1 loop [2]&lt;/span&gt;" style="text;html=1;strokeColor=none;fillColor=none;align=left;verticalAlign=middle;whiteSpace=wrap;rounded=0;" parent="1" vertex="1">
                    <mxGeometry x="40" y="3960" width="570" height="40" as="geometry"/>
                </mxCell>
                <mxCell id="825" value="&lt;span style=&quot;font-size: 24px;&quot;&gt;1 loop [3]&lt;/span&gt;" style="text;html=1;strokeColor=none;fillColor=none;align=left;verticalAlign=middle;whiteSpace=wrap;rounded=0;" parent="1" vertex="1">
                    <mxGeometry x="40" y="4240" width="200" height="40" as="geometry"/>
                </mxCell>
                <mxCell id="842" style="edgeStyle=none;html=1;fontSize=30;" parent="1" source="843" target="845" edge="1">
                    <mxGeometry relative="1" as="geometry"/>
                </mxCell>
                <mxCell id="843" value="&lt;font style=&quot;font-size: 30px;&quot;&gt;A&lt;/font&gt;" style="ellipse;whiteSpace=wrap;html=1;aspect=fixed;fontSize=30;" parent="1" vertex="1">
                    <mxGeometry x="40" y="3160" width="80" height="80" as="geometry"/>
                </mxCell>
                <mxCell id="844" style="edgeStyle=none;html=1;fontSize=30;" parent="1" source="845" target="843" edge="1">
                    <mxGeometry relative="1" as="geometry"/>
                </mxCell>
                <mxCell id="845" value="&lt;font style=&quot;font-size: 30px;&quot;&gt;B&lt;/font&gt;" style="ellipse;whiteSpace=wrap;html=1;aspect=fixed;fontSize=30;" parent="1" vertex="1">
                    <mxGeometry x="160" y="3160" width="80" height="80" as="geometry"/>
                </mxCell>
                <mxCell id="846" value="&lt;font style=&quot;font-size: 30px;&quot;&gt;C&lt;/font&gt;" style="ellipse;whiteSpace=wrap;html=1;aspect=fixed;fontSize=30;" parent="1" vertex="1">
                    <mxGeometry x="100" y="3280" width="80" height="80" as="geometry"/>
                </mxCell>
                <mxCell id="847" style="edgeStyle=none;html=1;fontSize=30;" parent="1" source="848" target="851" edge="1">
                    <mxGeometry relative="1" as="geometry"/>
                </mxCell>
                <mxCell id="848" value="&lt;font style=&quot;font-size: 30px;&quot;&gt;A&lt;/font&gt;" style="ellipse;whiteSpace=wrap;html=1;aspect=fixed;fontSize=30;" parent="1" vertex="1">
                    <mxGeometry x="280" y="3160" width="80" height="80" as="geometry"/>
                </mxCell>
                <mxCell id="849" value="&lt;font style=&quot;font-size: 30px;&quot;&gt;B&lt;/font&gt;" style="ellipse;whiteSpace=wrap;html=1;aspect=fixed;fontSize=30;" parent="1" vertex="1">
                    <mxGeometry x="400" y="3160" width="80" height="80" as="geometry"/>
                </mxCell>
                <mxCell id="850" style="edgeStyle=none;html=1;fontSize=30;" parent="1" source="851" target="848" edge="1">
                    <mxGeometry relative="1" as="geometry"/>
                </mxCell>
                <mxCell id="851" value="&lt;font style=&quot;font-size: 30px;&quot;&gt;C&lt;/font&gt;" style="ellipse;whiteSpace=wrap;html=1;aspect=fixed;fontSize=30;" parent="1" vertex="1">
                    <mxGeometry x="340" y="3280" width="80" height="80" as="geometry"/>
                </mxCell>
                <mxCell id="852" value="&lt;font style=&quot;font-size: 30px;&quot;&gt;A&lt;/font&gt;" style="ellipse;whiteSpace=wrap;html=1;aspect=fixed;fontSize=30;" parent="1" vertex="1">
                    <mxGeometry x="520" y="3160" width="80" height="80" as="geometry"/>
                </mxCell>
                <mxCell id="853" style="edgeStyle=none;html=1;fontSize=30;" parent="1" source="854" target="856" edge="1">
                    <mxGeometry relative="1" as="geometry"/>
                </mxCell>
                <mxCell id="854" value="&lt;font style=&quot;font-size: 30px;&quot;&gt;B&lt;/font&gt;" style="ellipse;whiteSpace=wrap;html=1;aspect=fixed;fontSize=30;" parent="1" vertex="1">
                    <mxGeometry x="640" y="3160" width="80" height="80" as="geometry"/>
                </mxCell>
                <mxCell id="855" style="edgeStyle=none;html=1;fontSize=30;" parent="1" source="856" target="854" edge="1">
                    <mxGeometry relative="1" as="geometry"/>
                </mxCell>
                <mxCell id="856" value="&lt;font style=&quot;font-size: 30px;&quot;&gt;C&lt;/font&gt;" style="ellipse;whiteSpace=wrap;html=1;aspect=fixed;fontSize=30;" parent="1" vertex="1">
                    <mxGeometry x="580" y="3280" width="80" height="80" as="geometry"/>
                </mxCell>
                <mxCell id="857" value="&lt;span style=&quot;font-size: 24px;&quot;&gt;2 loops [2, 1]&lt;/span&gt;" style="text;html=1;strokeColor=none;fillColor=none;align=left;verticalAlign=middle;whiteSpace=wrap;rounded=0;" parent="1" vertex="1">
                    <mxGeometry x="40" y="3120" width="200" height="40" as="geometry"/>
                </mxCell>
                <mxCell id="885" value="&lt;font style=&quot;font-size: 30px;&quot;&gt;A&lt;/font&gt;" style="ellipse;whiteSpace=wrap;html=1;aspect=fixed;fontSize=30;" vertex="1" parent="1">
                    <mxGeometry x="1960" y="3720" width="80" height="80" as="geometry"/>
                </mxCell>
                <mxCell id="886" style="edgeStyle=none;html=1;" edge="1" parent="1" source="887" target="885">
                    <mxGeometry relative="1" as="geometry"/>
                </mxCell>
                <mxCell id="887" value="&lt;font style=&quot;font-size: 30px;&quot;&gt;B&lt;/font&gt;" style="ellipse;whiteSpace=wrap;html=1;aspect=fixed;fontSize=30;" vertex="1" parent="1">
                    <mxGeometry x="2080" y="3720" width="80" height="80" as="geometry"/>
                </mxCell>
                <mxCell id="888" style="edgeStyle=none;html=1;" edge="1" parent="1" source="889" target="885">
                    <mxGeometry relative="1" as="geometry"/>
                </mxCell>
                <mxCell id="889" value="&lt;font style=&quot;font-size: 30px;&quot;&gt;C&lt;/font&gt;" style="ellipse;whiteSpace=wrap;html=1;aspect=fixed;fontSize=30;" vertex="1" parent="1">
                    <mxGeometry x="2020" y="3840" width="80" height="80" as="geometry"/>
                </mxCell>
                <mxCell id="890" style="edgeStyle=none;html=1;" edge="1" parent="1" source="891" target="892">
                    <mxGeometry relative="1" as="geometry"/>
                </mxCell>
                <mxCell id="891" value="&lt;font style=&quot;font-size: 30px;&quot;&gt;A&lt;/font&gt;" style="ellipse;whiteSpace=wrap;html=1;aspect=fixed;fontSize=30;" vertex="1" parent="1">
                    <mxGeometry x="1480" y="3720" width="80" height="80" as="geometry"/>
                </mxCell>
                <mxCell id="892" value="&lt;font style=&quot;font-size: 30px;&quot;&gt;B&lt;/font&gt;" style="ellipse;whiteSpace=wrap;html=1;aspect=fixed;fontSize=30;" vertex="1" parent="1">
                    <mxGeometry x="1600" y="3720" width="80" height="80" as="geometry"/>
                </mxCell>
                <mxCell id="893" style="edgeStyle=none;html=1;" edge="1" parent="1" source="894" target="892">
                    <mxGeometry relative="1" as="geometry"/>
                </mxCell>
                <mxCell id="894" value="&lt;font style=&quot;font-size: 30px;&quot;&gt;C&lt;/font&gt;" style="ellipse;whiteSpace=wrap;html=1;aspect=fixed;fontSize=30;" vertex="1" parent="1">
                    <mxGeometry x="1540" y="3840" width="80" height="80" as="geometry"/>
                </mxCell>
                <mxCell id="895" value="&lt;span style=&quot;font-size: 24px;&quot;&gt;1 loop, short tails&lt;/span&gt;" style="text;html=1;strokeColor=none;fillColor=none;align=left;verticalAlign=middle;whiteSpace=wrap;rounded=0;" vertex="1" parent="1">
                    <mxGeometry x="1480" y="3680" width="200" height="40" as="geometry"/>
                </mxCell>
                <mxCell id="896" style="edgeStyle=none;html=1;" edge="1" parent="1" source="897" target="900">
                    <mxGeometry relative="1" as="geometry"/>
                </mxCell>
                <mxCell id="897" value="&lt;font style=&quot;font-size: 30px;&quot;&gt;A&lt;/font&gt;" style="ellipse;whiteSpace=wrap;html=1;aspect=fixed;fontSize=30;" vertex="1" parent="1">
                    <mxGeometry x="1720" y="3720" width="80" height="80" as="geometry"/>
                </mxCell>
                <mxCell id="898" style="edgeStyle=none;html=1;" edge="1" parent="1" source="899" target="900">
                    <mxGeometry relative="1" as="geometry"/>
                </mxCell>
                <mxCell id="899" value="&lt;font style=&quot;font-size: 30px;&quot;&gt;B&lt;/font&gt;" style="ellipse;whiteSpace=wrap;html=1;aspect=fixed;fontSize=30;" vertex="1" parent="1">
                    <mxGeometry x="1840" y="3720" width="80" height="80" as="geometry"/>
                </mxCell>
                <mxCell id="900" value="&lt;font style=&quot;font-size: 30px;&quot;&gt;C&lt;/font&gt;" style="ellipse;whiteSpace=wrap;html=1;aspect=fixed;fontSize=30;" vertex="1" parent="1">
                    <mxGeometry x="1780" y="3840" width="80" height="80" as="geometry"/>
                </mxCell>
            </root>
        </mxGraphModel>
    </diagram>
</mxfile>